<svg width="26" height="26" viewBox="0 0 26 26" fill="none" xmlns="http://www.w3.org/2000/svg">
<path d="M22.8852 11.4936V10.6467C22.8852 6.94627 20.8515 3.7213 17.8412 2.02704M17.8412 2.02704L16.3783 4.81259M17.8412 2.02704C16.4103 1.2217 14.7591 0.761719 13.0002 0.761719C11.1833 0.761719 9.48117 1.25242 8.01827 2.10778M16.3783 4.81259C18.3887 5.98117 19.7434 8.15862 19.7434 10.6467V11.4936M16.3783 4.81259C15.3844 4.23485 14.2303 3.90355 13.0002 3.90355C11.7683 3.90355 10.6127 4.23582 9.61782 4.81513M6.25702 11.4936V10.6467C6.25702 8.16039 7.60978 5.98432 9.61782 4.81513M9.61782 4.81513L8.01827 2.10778M8.01827 2.10778C5.0856 3.82251 3.11523 7.00431 3.11523 10.6467V11.4936" stroke="white" stroke-miterlimit="10" stroke-linecap="round" stroke-linejoin="round"/>
<path d="M15.5455 23.7285H19.4273C20.5941 23.7285 21.5399 22.7826 21.5399 21.6159V19.559M6.25708 19.559H3.79332C2.90968 19.559 2.19336 18.8426 2.19336 17.959V13.0935C2.19336 12.2098 2.90968 11.4935 3.79332 11.4935H6.25708V19.559ZM19.7435 19.559H22.2072C23.0909 19.559 23.8072 18.8426 23.8072 17.959V13.0935C23.8072 12.2098 23.0909 11.4935 22.2072 11.4935H19.7435V19.559ZM15.3869 23.7529C15.3869 22.9326 14.7219 22.2676 13.9015 22.2676H12.099C11.2787 22.2676 10.6137 22.9326 10.6137 23.7529C10.6137 24.5732 11.2787 25.2383 12.099 25.2383H13.9015C14.7219 25.2383 15.3869 24.5732 15.3869 23.7529Z" stroke="white" stroke-miterlimit="10" stroke-linecap="round" stroke-linejoin="round"/>
</svg>
