<svg width="36" height="12" viewBox="0 0 36 12" fill="none" xmlns="http://www.w3.org/2000/svg">
    <path
        d="M5.12425 11.6773L0.40377 6.9712C0.145206 6.71281 0 6.36272 0 5.99774C0 5.63275 0.145206 5.28267 0.40377 5.02427L5.12416 0.318303C5.3361 0.112458 5.62083 -0.00188671 5.91671 2.35555e-05C6.21259 0.00193382 6.49582 0.119945 6.70506 0.328509C6.9143 0.537074 7.03272 0.819405 7.03469 1.11438C7.03666 1.40935 6.92201 1.69323 6.71556 1.90455L3.73518 4.87577H34.8748C35.1732 4.87577 35.4594 4.99395 35.6704 5.20432C35.8815 5.41469 36 5.70001 36 5.99751C36 6.29502 35.8815 6.58034 35.6704 6.79071C35.4594 7.00107 35.1732 7.11926 34.8748 7.11926H3.73536L6.71556 10.091C6.92392 10.3019 7.0402 10.5864 7.03907 10.8825C7.03793 11.1785 6.91947 11.4621 6.70951 11.6714C6.49954 11.8807 6.21509 11.9988 5.91814 12C5.6212 12.0011 5.33584 11.885 5.12425 11.6773Z"
        fill="#000" />
</svg>