<svg width="140" height="46" viewBox="0 0 140 46" fill="none" xmlns="http://www.w3.org/2000/svg">
<g clip-path="url(#clip0_1_8837)">
<path d="M39.9141 30.3743H49.1546V27.5457H42.7318V14.3379H39.9141V30.3743Z" fill="#DDDDDD"/>
<path d="M54.707 30.7091C55.8259 30.7091 56.81 30.4418 57.6595 29.9073C58.5158 29.3653 59.1823 28.6192 59.6589 27.6689C60.1423 26.7112 60.384 25.6087 60.384 24.3614C60.384 23.1216 60.1457 22.0265 59.6692 21.0762C59.1926 20.1185 58.5262 19.3686 57.6698 18.8266C56.8204 18.2847 55.8328 18.0137 54.707 18.0137C53.602 18.0137 52.6248 18.281 51.7753 18.8155C50.9259 19.3501 50.2594 20.0962 49.7759 21.0539C49.2925 22.0042 49.0508 23.1067 49.0508 24.3614C49.0508 25.6012 49.2856 26.7001 49.7553 27.6577C50.2317 28.6081 50.8948 29.3542 51.7442 29.8962C52.5938 30.4381 53.5813 30.7091 54.707 30.7091ZM54.707 27.8805C53.8299 27.8805 53.1635 27.565 52.7077 26.9339C52.2587 26.2955 52.0343 25.438 52.0343 24.3614C52.0343 23.3146 52.2484 22.4682 52.6766 21.8223C53.1117 21.169 53.7885 20.8423 54.707 20.8423C55.598 20.8423 56.2679 21.1616 56.7168 21.8001C57.1726 22.4385 57.4005 23.2923 57.4005 24.3614C57.4005 25.3934 57.1761 26.2397 56.7271 26.9005C56.2851 27.5538 55.6117 27.8805 54.707 27.8805Z" fill="#DDDDDD"/>
<path d="M65.9558 30.7091C66.4807 30.7091 66.9641 30.6423 67.4062 30.5087C67.8551 30.3751 68.2625 30.1857 68.6286 29.9407V31.1546C68.6424 31.6001 68.5353 31.9712 68.3074 32.2682C68.0864 32.5726 67.7895 32.7991 67.4165 32.9476C67.0436 33.1035 66.6464 33.1814 66.2252 33.1814C65.8315 33.1814 65.4655 33.0886 65.1271 32.903C64.7956 32.7174 64.54 32.4464 64.3604 32.0901L61.7499 33.4487C62.1781 34.2282 62.7893 34.8556 63.5835 35.3307C64.3778 35.8133 65.2514 36.0546 66.2045 36.0546C67.0263 36.0546 67.7895 35.9358 68.4939 35.6982C69.1983 35.4681 69.7923 35.1155 70.2757 34.6402C70.766 34.1651 71.101 33.5601 71.2806 32.8251C71.3427 32.5652 71.3841 32.3016 71.4049 32.0343C71.4325 31.7745 71.4463 31.4961 71.4463 31.1991V18.3477H68.9808V19.016C68.6009 18.6967 68.1693 18.4517 67.6859 18.281C67.2093 18.1027 66.681 18.0137 66.1008 18.0137C65.0304 18.0137 64.098 18.2884 63.3039 18.8377C62.5096 19.3872 61.8915 20.1407 61.4495 21.0985C61.0144 22.0487 60.7969 23.1364 60.7969 24.3614C60.7969 25.5641 61.0109 26.6443 61.4392 27.6021C61.8742 28.5598 62.4785 29.3171 63.252 29.8739C64.0255 30.4307 64.9268 30.7091 65.9558 30.7091ZM66.4116 28.0141C65.8039 28.0141 65.3067 27.8508 64.9199 27.5241C64.5332 27.1975 64.2465 26.7595 64.0601 26.2101C63.8736 25.6532 63.7803 25.037 63.7803 24.3614C63.7803 23.6932 63.877 23.0845 64.0704 22.5351C64.2638 21.9782 64.5608 21.5365 64.9613 21.2098C65.3688 20.8757 65.8868 20.7087 66.5152 20.7087C67.3993 20.7087 68.0311 21.0465 68.411 21.7221C68.7909 22.3902 68.9808 23.2701 68.9808 24.3614C68.9808 25.4527 68.7874 26.3362 68.4007 27.0118C68.0208 27.6801 67.3578 28.0141 66.4116 28.0141Z" fill="#DDDDDD"/>
<path d="M78.1406 30.7091C79.2595 30.7091 80.2436 30.4418 81.0931 29.9073C81.9493 29.3653 82.6159 28.6192 83.0921 27.6689C83.5756 26.7112 83.8173 25.6087 83.8173 24.3614C83.8173 23.1216 83.5796 22.0265 83.1026 21.0762C82.6265 20.1185 81.9599 19.3686 81.1034 18.8266C80.254 18.2847 79.2663 18.0137 78.1406 18.0137C77.0356 18.0137 76.0584 18.281 75.2089 18.8155C74.3595 19.3501 73.693 20.0962 73.2095 21.0539C72.7261 22.0042 72.4844 23.1067 72.4844 24.3614C72.4844 25.6012 72.7192 26.7001 73.1889 27.6577C73.6653 28.6081 74.3284 29.3542 75.1778 29.8962C76.0274 30.4381 77.0149 30.7091 78.1406 30.7091ZM78.1406 27.8805C77.2635 27.8805 76.597 27.565 76.1412 26.9339C75.6923 26.2955 75.4679 25.438 75.4679 24.3614C75.4679 23.3146 75.682 22.4682 76.1102 21.8223C76.5453 21.169 77.2221 20.8423 78.1406 20.8423C79.0316 20.8423 79.7015 21.1616 80.1504 21.8001C80.6062 22.4385 80.8341 23.2923 80.8341 24.3614C80.8341 25.3934 80.6096 26.2397 80.1607 26.9005C79.7187 27.5538 79.0453 27.8805 78.1406 27.8805Z" fill="#DDDDDD"/>
<path d="M85.0586 16.6766H87.8765V14.0039H85.0586V16.6766ZM85.0586 30.3744H87.8765V18.3471H85.0586V30.3744Z" fill="#DDDDDD"/>
<path d="M89.7188 35.7205H92.557V29.9407C92.9233 30.1857 93.327 30.3751 93.769 30.5087C94.2183 30.6423 94.705 30.7091 95.23 30.7091C96.2589 30.7091 97.1607 30.4307 97.934 29.8739C98.7072 29.3171 99.3079 28.5598 99.7361 27.6021C100.172 26.6443 100.389 25.5641 100.389 24.3614C100.389 23.1364 100.168 22.0487 99.7263 21.0985C99.2908 20.1407 98.6763 19.3872 97.8819 18.8377C97.0875 18.2884 96.1555 18.0137 95.0851 18.0137C94.5048 18.0137 93.9733 18.1027 93.4898 18.281C93.0128 18.4517 92.5847 18.6967 92.2054 19.016V18.3477H89.7188V35.7205ZM94.7742 28.0141C93.8349 28.0141 93.1724 27.6801 92.7849 27.0118C92.3983 26.3362 92.2054 25.4527 92.2054 24.3614C92.2054 23.2701 92.395 22.3902 92.7751 21.7221C93.1618 21.0465 93.7934 20.7087 94.6708 20.7087C95.2992 20.7087 95.8136 20.8757 96.2141 21.2098C96.6219 21.5365 96.9222 21.9782 97.1151 22.5351C97.3089 23.0845 97.4057 23.6932 97.4057 24.3614C97.4057 25.037 97.3121 25.6532 97.1257 26.2101C96.9393 26.7595 96.6528 27.1975 96.2662 27.5241C95.8796 27.8508 95.3822 28.0141 94.7742 28.0141Z" fill="#DDDDDD"/>
<path d="M105.494 30.7091C106.957 30.7091 108.104 30.3565 108.933 29.6512C109.761 28.9458 110.175 27.977 110.175 26.7446C110.175 25.8091 109.906 25.0705 109.368 24.5285C108.836 23.9865 107.931 23.5373 106.653 23.181C105.783 22.9433 105.134 22.7503 104.706 22.6018C104.285 22.4534 104.005 22.3086 103.867 22.1676C103.735 22.0265 103.67 21.852 103.67 21.6441C103.67 21.2952 103.825 21.028 104.136 20.8423C104.454 20.6567 104.872 20.5825 105.389 20.6196C106.487 20.7087 107.089 21.2135 107.192 22.1341L110.072 21.5773C109.927 20.486 109.43 19.621 108.58 18.9826C107.731 18.3366 106.647 18.0137 105.328 18.0137C103.974 18.0137 102.893 18.3552 102.085 19.0382C101.277 19.7212 100.873 20.6418 100.873 21.8001C100.873 22.7206 101.153 23.4482 101.712 23.9827C102.271 24.5099 103.235 24.9627 104.602 25.3414C105.411 25.5716 106.004 25.7572 106.384 25.8982C106.771 26.0393 107.02 26.1841 107.13 26.3326C107.24 26.4736 107.296 26.663 107.296 26.9005C107.296 27.2791 107.157 27.5761 106.881 27.7914C106.605 27.9993 106.212 28.1032 105.7 28.1032C105.078 28.1032 104.564 27.9436 104.157 27.6243C103.757 27.3051 103.497 26.8634 103.38 26.2991L100.5 26.7668C100.686 28.0216 101.211 28.9941 102.075 29.6846C102.945 30.3676 104.085 30.7091 105.494 30.7091Z" fill="#DDDDDD"/>
<path d="M115.372 30.7314C116.18 30.7314 116.884 30.5865 117.486 30.297C118.086 30.0075 118.59 29.6214 118.998 29.1389V30.375H121.484V18.3477H118.645V24.4504C118.645 25.1929 118.566 25.7942 118.407 26.2545C118.256 26.7074 118.059 27.0526 117.817 27.2902C117.575 27.5204 117.316 27.6762 117.04 27.7579C116.764 27.8396 116.505 27.8804 116.263 27.8804C115.662 27.8804 115.196 27.7356 114.865 27.4461C114.54 27.1565 114.305 26.7965 114.16 26.3659C114.015 25.9352 113.929 25.5084 113.901 25.0852C113.873 24.6546 113.859 24.3019 113.859 24.0272V18.3477H111V25.0964C111 25.2967 111.014 25.616 111.042 26.054C111.069 26.4921 111.149 26.9784 111.28 27.5129C111.411 28.04 111.628 28.5486 111.933 29.0386C112.244 29.5286 112.675 29.9332 113.228 30.2525C113.78 30.5717 114.495 30.7314 115.372 30.7314Z" fill="#DDDDDD"/>
<path d="M123.117 30.3754H125.955V23.0922C125.955 22.4018 126.131 21.8413 126.484 21.4106C126.843 20.9726 127.316 20.7536 127.903 20.7536C128.518 20.7536 128.998 20.9764 129.343 21.4218C129.695 21.8599 129.871 22.476 129.871 23.2704V30.3754H132.689V23.0922C132.689 22.4018 132.865 21.8413 133.218 21.4106C133.576 20.9726 134.049 20.7536 134.636 20.7536C135.252 20.7536 135.731 20.9764 136.076 21.4218C136.429 21.8599 136.605 22.476 136.605 23.2704V30.3754H139.422V22.4686C139.422 21.1545 139.094 20.0929 138.438 19.2836C137.79 18.467 136.826 18.0586 135.548 18.0586C134.83 18.0586 134.171 18.2256 133.569 18.5597C132.968 18.8939 132.489 19.3504 132.129 19.9295C131.84 19.3653 131.425 18.9124 130.886 18.5709C130.348 18.2294 129.678 18.0586 128.877 18.0586C128.2 18.0586 127.578 18.2034 127.012 18.4929C126.445 18.775 125.976 19.1649 125.603 19.6622V18.3481H123.117V30.3754Z" fill="#DDDDDD"/>
<path d="M16.2791 5C7.28838 5 0 12.835 0 22.5C8.99069 22.5 16.2791 14.665 16.2791 5Z" fill="#DDDDDD"/>
<path d="M16.2773 40C25.268 40 32.5564 32.165 32.5564 22.5C23.5657 22.5 16.2773 30.335 16.2773 40Z" fill="#DDDDDD"/>
<path d="M16.2773 5C25.268 5 32.5564 12.835 32.5564 22.5C23.5657 22.5 16.2773 14.665 16.2773 5Z" fill="#DDDDDD"/>
<path d="M16.2791 40C7.28838 40 -7.8599e-07 32.165 0 22.5C8.99069 22.5 16.2791 30.335 16.2791 40Z" fill="#DDDDDD"/>
</g>
<defs>
<clipPath id="clip0_1_8837">
<rect width="140" height="35" fill="white" transform="translate(0 5)"/>
</clipPath>
</defs>
</svg>
