<svg width="140" height="46" viewBox="0 0 140 46" fill="none" xmlns="http://www.w3.org/2000/svg">
<g clip-path="url(#clip0_1_8822)">
<path d="M33.7461 10.1895H37.2415V30.5259H42.9928V33.9154H33.7461V10.1895Z" fill="#DDDDDD"/>
<path d="M49.5956 34.2553C47.8797 34.2553 46.5663 33.7357 45.6554 32.6962C44.7445 31.6567 44.2891 30.1881 44.2891 28.2899V15.8169C44.2891 13.9189 44.7445 12.4501 45.6554 11.4107C46.5663 10.3713 47.8797 9.85156 49.5956 9.85156C51.3115 9.85156 52.6248 10.3713 53.5358 11.4107C54.4467 12.4501 54.9021 13.9189 54.9021 15.8169V28.2899C54.9021 30.1881 54.4467 31.6567 53.5358 32.6962C52.6248 33.7357 51.3115 34.2553 49.5956 34.2553ZM49.5956 30.8659C50.8031 30.8659 51.4068 30.0863 51.4068 28.5272V15.5797C51.4068 14.0205 50.8031 13.241 49.5956 13.241C48.3881 13.241 47.7843 14.0205 47.7843 15.5797V28.5272C47.7843 30.0863 48.3881 30.8659 49.5956 30.8659Z" fill="#DDDDDD"/>
<path d="M62.223 34.2553C60.5283 34.2553 59.2361 33.747 58.3463 32.7301C57.4566 31.6907 57.0117 30.2106 57.0117 28.2899V15.8169C57.0117 13.8963 57.4566 12.4275 58.3463 11.4107C59.2361 10.3713 60.5283 9.85156 62.223 9.85156C63.9177 9.85156 65.2099 10.3713 66.0996 11.4107C66.9893 12.4275 67.4342 13.8963 67.4342 15.8169V17.8506H64.1295V15.5797C64.1295 14.0205 63.5257 13.241 62.3182 13.241C61.1108 13.241 60.5071 14.0205 60.5071 15.5797V28.5612C60.5071 30.0977 61.1108 30.8659 62.3182 30.8659C63.5257 30.8659 64.1295 30.0977 64.1295 28.5612V23.9176H62.3819V20.5282H67.4342V28.2899C67.4342 30.2106 66.9893 31.6907 66.0996 32.7301C65.2099 33.747 63.9177 34.2553 62.223 34.2553Z" fill="#DDDDDD"/>
<path d="M74.7323 34.2553C73.0164 34.2553 71.7031 33.7357 70.7922 32.6962C69.8812 31.6567 69.4258 30.1881 69.4258 28.2899V15.8169C69.4258 13.9189 69.8812 12.4501 70.7922 11.4107C71.7031 10.3713 73.0164 9.85156 74.7323 9.85156C76.4483 9.85156 77.7616 10.3713 78.6725 11.4107C79.5835 12.4501 80.0389 13.9189 80.0389 15.8169V28.2899C80.0389 30.1881 79.5835 31.6567 78.6725 32.6962C77.7616 33.7357 76.4483 34.2553 74.7323 34.2553ZM74.7323 30.8659C75.9398 30.8659 76.5436 30.0863 76.5436 28.5272V15.5797C76.5436 14.0205 75.9398 13.241 74.7323 13.241C73.5249 13.241 72.9211 14.0205 72.9211 15.5797V28.5272C72.9211 30.0863 73.5249 30.8659 74.7323 30.8659Z" fill="#DDDDDD"/>
<path d="M82.4062 10.1895H85.9016V33.9154H82.4062V10.1895Z" fill="#DDDDDD"/>
<path d="M88.5195 10.1895H93.6672C95.404 10.1895 96.7069 10.6866 97.5758 11.6808C98.4447 12.675 98.8787 14.1325 98.8787 16.0531V18.3918C98.8787 20.3125 98.4447 21.7699 97.5758 22.7642C96.7069 23.7584 95.404 24.2555 93.6672 24.2555H92.0152V33.9154H88.5195V10.1895ZM93.6672 20.8661C94.2394 20.8661 94.6629 20.6966 94.9385 20.3577C95.2352 20.0187 95.383 19.4426 95.383 18.6291V15.8159C95.383 15.0024 95.2352 14.4262 94.9385 14.0873C94.6629 13.7483 94.2394 13.5789 93.6672 13.5789H92.0152V20.8661H93.6672Z" fill="#DDDDDD"/>
<path d="M105.448 34.2553C103.754 34.2553 102.473 33.747 101.604 32.7301C100.736 31.6907 100.301 30.2106 100.301 28.2899V26.9342H103.606V28.5612C103.606 30.0977 104.209 30.8659 105.417 30.8659C106.01 30.8659 106.455 30.6852 106.751 30.3237C107.069 29.9395 107.228 29.3294 107.228 28.4933C107.228 27.4991 107.016 26.6292 106.593 25.8835C106.169 25.1152 105.385 24.2001 104.241 23.138C102.801 21.7823 101.794 20.5621 101.222 19.4775C100.651 18.3703 100.365 17.1275 100.365 15.7491C100.365 13.8737 100.809 12.4275 101.699 11.4107C102.589 10.3713 103.881 9.85156 105.576 9.85156C107.249 9.85156 108.51 10.3713 109.357 11.4107C110.226 12.4275 110.66 13.8963 110.66 15.8169V16.7999H107.355V15.5797C107.355 14.7662 107.207 14.1787 106.911 13.8172C106.614 13.433 106.18 13.241 105.608 13.241C104.442 13.241 103.86 13.9979 103.86 15.5119C103.86 16.3705 104.072 17.1727 104.496 17.9184C104.94 18.664 105.735 19.5678 106.879 20.6299C108.34 21.9856 109.347 23.2172 109.898 24.3244C110.448 25.4316 110.724 26.7308 110.724 28.2222C110.724 30.1655 110.268 31.6567 109.357 32.6962C108.467 33.7357 107.164 34.2553 105.448 34.2553Z" fill="#DDDDDD"/>
<path d="M117.809 34.2543C116.114 34.2543 114.822 33.7459 113.932 32.729C113.042 31.6897 112.598 30.2096 112.598 28.2889V10.1895H116.093V28.5601C116.093 29.3735 116.241 29.961 116.538 30.3226C116.855 30.6841 117.301 30.8649 117.872 30.8649C118.444 30.8649 118.878 30.6841 119.175 30.3226C119.493 29.961 119.652 29.3735 119.652 28.5601V10.1895H123.02V28.2889C123.02 30.2096 122.575 31.6897 121.685 32.729C120.796 33.7459 119.503 34.2543 117.809 34.2543Z" fill="#DDDDDD"/>
<path d="M125.508 10.1895H130.497L132.721 27.1704H132.784L135.009 10.1895H139.998V33.9154H136.693V15.9515H136.63L134.087 33.9154H131.164L128.622 15.9515H128.559V33.9154H125.508V10.1895Z" fill="#DDDDDD"/>
<path d="M0 33.9151C4.30017 33.9151 7.78611 30.1967 7.78611 25.6099C7.78611 21.023 4.30017 17.3047 0 17.3047V23.1183C1.29004 23.1183 2.33582 24.2338 2.33582 25.6099C2.33582 26.9859 1.29004 28.1015 0 28.1015V33.9151Z" fill="#DDDDDD"/>
<path d="M25.9527 20.073C24.6222 19.6234 23.2053 19.3809 21.7352 19.3809C14.0308 19.3809 7.78516 26.043 7.78516 34.261C7.78516 35.0859 7.84809 35.8951 7.96906 36.6834H16.6367C16.3273 35.9434 16.1553 35.1237 16.1553 34.261C16.1553 30.9738 18.6535 28.3089 21.7352 28.3089C23.4196 28.3089 24.9296 29.105 25.9527 30.3636V20.073Z" fill="#DDDDDD"/>
<path d="M1.36719 9C2.01271 15.2288 6.9635 20.0736 12.9751 20.0736C18.9866 20.0736 23.9375 15.2288 24.5829 9H16.2306C15.715 10.3788 14.4517 11.3531 12.9751 11.3531C11.4985 11.3531 10.2352 10.3788 9.71949 9H1.36719Z" fill="#DDDDDD"/>
</g>
<defs>
<clipPath id="clip0_1_8822">
<rect width="140" height="28" fill="white" transform="translate(0 9)"/>
</clipPath>
</defs>
</svg>
