<svg width="140" height="46" viewBox="0 0 140 46" fill="none" xmlns="http://www.w3.org/2000/svg">
<g clip-path="url(#clip0_1_8853)">
<path d="M22.7031 2C20.0111 2 17.3452 2.5303 14.8581 3.56046C12.3709 4.59073 10.1111 6.10069 8.2074 8.00426C6.30383 9.90795 4.79386 12.1677 3.76358 14.6549C2.73343 17.1421 2.20312 19.8079 2.20312 22.5C2.20312 25.192 2.73343 27.8578 3.76358 30.345C4.79386 32.8322 6.30383 35.092 8.2074 36.9957C10.1111 38.8992 12.3709 40.4092 14.8581 41.4395C17.3452 42.4696 20.0111 42.9999 22.7031 42.9999V32.7499C21.357 32.7499 20.0242 32.4848 18.7806 31.9696C17.537 31.4546 16.407 30.6996 15.4553 29.7478C14.5035 28.796 13.7485 27.6661 13.2334 26.4225C12.7182 25.1789 12.4531 23.846 12.4531 22.5C12.4531 21.1539 12.7182 19.821 13.2334 18.5774C13.7485 17.3339 14.5035 16.2039 15.4553 15.2521C16.407 14.3003 17.537 13.5453 18.7806 13.0303C20.0242 12.5151 21.357 12.25 22.7031 12.25V2Z" fill="#DDDDDD"/>
<path d="M22.7044 29.3326C26.4784 29.3326 29.5377 26.2733 29.5377 22.4993C29.5377 18.7253 26.4784 15.666 22.7044 15.666C18.9304 15.666 15.8711 18.7253 15.8711 22.4993C15.8711 26.2733 18.9304 29.3326 22.7044 29.3326Z" fill="#DDDDDD"/>
<path d="M2.20312 22.5C2.20312 25.1921 2.73343 27.8579 3.76358 30.345C4.79386 32.8322 6.30383 35.092 8.2074 36.9957C10.1111 38.8993 12.3709 40.4092 14.8581 41.4395C17.3452 42.4697 20.0111 43 22.7031 43C25.3952 43 28.061 42.4697 30.5482 41.4395C33.0354 40.4092 35.2952 38.8993 37.1988 36.9957C39.1024 35.092 40.6124 32.8322 41.6427 30.345C42.6728 27.8579 43.2031 25.1921 43.2031 22.5H32.9531C32.9531 23.8461 32.688 25.1789 32.1728 26.4225C31.6578 27.6661 30.9028 28.7961 29.951 29.7478C28.9992 30.6996 27.8692 31.4546 26.6257 31.9697C25.3821 32.4849 24.0492 32.75 22.7031 32.75C21.357 32.75 20.0242 32.4849 18.7806 31.9697C17.537 31.4546 16.407 30.6996 15.4553 29.7478C14.5035 28.7961 13.7485 27.6661 13.2334 26.4225C12.7182 25.1789 12.4531 23.8461 12.4531 22.5H2.20312Z" fill="#DDDDDD"/>
<path d="M29.5378 22.4994C29.5378 20.6871 28.8178 18.9491 27.5364 17.6675C26.2549 16.386 24.5168 15.666 22.7045 15.666C20.8922 15.666 19.1541 16.386 17.8726 17.6675C16.5911 18.9491 15.8711 20.6871 15.8711 22.4994H22.7045H29.5378Z" fill="#DDDDDD"/>
<path d="M50.8647 13.5293H48.4688V27.7716H50.8647V13.5293Z" fill="#DDDDDD"/>
<path d="M52.4258 22.7252C52.4258 26.0213 54.5555 28.0559 57.3699 28.0559C60.1842 28.0559 62.314 26.0213 62.314 22.7252C62.314 19.4291 60.1842 17.3945 57.3699 17.3945C54.5555 17.3945 52.4258 19.4291 52.4258 22.7252ZM54.8218 22.7252C54.8218 20.772 55.8866 19.6326 57.3699 19.6326C58.8531 19.6326 59.918 20.772 59.918 22.7252C59.918 24.6785 58.8531 25.8178 57.3699 25.8178C55.8866 25.8178 54.8218 24.6785 54.8218 22.7252Z" fill="#DDDDDD"/>
<path d="M70.8769 17.6794V19.0425H70.6867C70.1162 18.1677 69.2035 17.3945 67.5681 17.3945C65.3243 17.3945 63.3086 19.4291 63.3086 22.5625C63.3086 25.6958 65.3243 27.7304 67.5681 27.7304C69.2035 27.7304 70.1162 26.9368 70.6487 26.1434H70.8388V27.12C70.8388 29.0732 69.7739 29.9685 68.2147 29.9685C66.6554 29.9685 65.8567 29.0732 65.5334 27.9134L63.3847 28.9105C63.8791 30.4364 65.3243 32.1251 68.2527 32.1251C71.2572 32.1251 73.2348 30.4364 73.2348 27.181V17.6794H70.8769ZM68.2907 25.533C66.8075 25.533 65.7046 24.3936 65.7046 22.5625C65.7046 20.7313 66.8075 19.5919 68.2907 19.5919C69.7739 19.5919 70.8769 20.7313 70.8769 22.5625C70.8769 24.3936 69.7739 25.533 68.2907 25.533Z" fill="#DDDDDD"/>
<path d="M74.7852 22.7252C74.7852 26.0213 76.9149 28.0559 79.7292 28.0559C82.5436 28.0559 84.6732 26.0213 84.6732 22.7252C84.6732 19.4291 82.5436 17.3945 79.7292 17.3945C76.9149 17.3945 74.7852 19.4291 74.7852 22.7252ZM77.1811 22.7252C77.1811 20.772 78.246 19.6326 79.7292 19.6326C81.2125 19.6326 82.2774 20.772 82.2774 22.7252C82.2774 24.6785 81.2125 25.8178 79.7292 25.8178C78.246 25.8178 77.1811 24.6785 77.1811 22.7252Z" fill="#DDDDDD"/>
<path d="M86.5547 14.7498C86.5547 15.7875 87.2966 16.4995 88.2479 16.4995C89.1982 16.4995 89.94 15.7875 89.94 14.7498C89.94 13.7122 89.1982 13 88.2479 13C87.2966 13 86.5547 13.7122 86.5547 14.7498ZM89.4451 17.6796H87.0497V27.7713H89.4451V17.6796Z" fill="#DDDDDD"/>
<path d="M91.582 31.8403H93.9786V26.4689H94.1682C94.7006 27.2828 95.6134 28.0559 97.2493 28.0559C99.4926 28.0559 101.509 26.0213 101.509 22.7252C101.509 19.4291 99.4926 17.3945 97.2493 17.3945C95.6134 17.3945 94.7006 18.1677 94.1307 19.0426H93.94V17.6794H91.582V31.8403ZM96.5261 25.8585C95.0434 25.8585 93.94 24.7191 93.94 22.7252C93.94 20.7313 95.0434 19.5919 96.5261 19.5919C98.0099 19.5919 99.1123 20.7313 99.1123 22.7252C99.1123 24.7191 98.0099 25.8585 96.5261 25.8585Z" fill="#DDDDDD"/>
<path d="M102.905 20.5076C102.905 22.5015 104.464 23.2339 106.442 23.6409L106.937 23.7425C108.115 23.9867 108.648 24.2919 108.648 24.943C108.648 25.5941 108.115 26.1027 107.013 26.1027C105.909 26.1027 105.016 25.6144 104.768 24.1495L102.562 24.7598C102.887 26.8758 104.54 28.0559 107.013 28.0559C109.408 28.0559 110.968 26.8556 110.968 24.7396C110.968 22.6234 109.371 22.0539 107.241 21.6062L106.746 21.5045C105.757 21.301 105.225 21.0161 105.225 20.3448C105.225 19.7344 105.72 19.3478 106.632 19.3478C107.545 19.3478 108.191 19.7547 108.419 20.8534L110.588 20.1413C110.131 18.5136 108.743 17.3945 106.632 17.3945C104.388 17.3945 102.905 18.5136 102.905 20.5076Z" fill="#DDDDDD"/>
<path d="M121.729 27.7714V17.6797H119.334V22.8883C119.334 24.7601 118.478 25.8588 117.013 25.8588C115.72 25.8588 114.998 25.1061 114.998 23.5801V17.6797H112.602V23.7021C112.602 26.2048 114.067 27.9341 116.272 27.9341C118.002 27.9341 118.801 27.1203 119.182 26.2658H119.371V27.7714H121.729Z" fill="#DDDDDD"/>
<path d="M123.855 17.6784V27.7701H126.252V21.7476C126.252 20.3641 126.861 19.5909 127.963 19.5909C128.914 19.5909 129.484 20.1606 129.484 21.2593V27.7701H131.881V21.7476C131.881 20.3641 132.489 19.5909 133.592 19.5909C134.543 19.5909 135.113 20.1606 135.113 21.2593V27.7701H137.509V21.1372C137.509 18.6957 136.102 17.5156 134.352 17.5156C132.812 17.5156 132.109 18.2481 131.652 19.1026H131.462C131.024 18.1464 130.245 17.5156 128.876 17.5156C127.506 17.5156 126.765 18.1667 126.404 18.9399H126.213V17.6784H123.855Z" fill="#DDDDDD"/>
</g>
<defs>
<clipPath id="clip0_1_8853">
<rect width="140" height="46" fill="white"/>
</clipPath>
</defs>
</svg>
