<svg width="120" height="30" viewBox="0 0 120 30" fill="none" xmlns="http://www.w3.org/2000/svg">
<g clip-path="url(#clip0_821_2002)">
<path d="M97.4655 15.6835C97.3329 17.8043 97.6864 20.0576 97.0237 22.3109C95.5215 27.2152 90.7497 30.4405 85.492 29.8661C80.6319 29.3801 76.5229 25.1828 76.1695 20.1901C76.0369 18.2903 75.9927 16.3463 76.0811 14.4464C76.1695 12.9 75.4625 12.5907 74.1371 12.6349C70.5141 12.8116 67.9073 15.3301 67.7748 18.9088C67.6864 21.5598 67.7748 24.2108 67.7306 26.8617C67.7306 28.3639 67.3329 29.8219 65.5215 29.8219C63.71 29.8219 63.3565 28.4523 63.3565 26.9059C63.4007 24.2549 63.3123 21.604 63.3565 18.953C63.4449 13.5627 67.5097 9.1003 72.8558 8.61429C74.4022 8.48174 75.9486 8.52593 77.4949 8.48175C79.5715 8.43756 80.3668 9.54213 80.3226 11.5303C80.2343 14.4464 79.925 17.4066 80.4994 20.3227C81.1621 23.9015 83.7689 25.8455 87.2151 25.5804C90.6614 25.3153 92.9147 23.062 93.1356 19.3949C93.2681 17.3625 93.1798 15.2859 93.224 13.2093C93.224 12.3256 93.224 11.442 93.2681 10.5583C93.3565 9.27703 94.1076 8.48175 95.3889 8.48175C96.6702 8.48175 97.4213 9.32121 97.4213 10.6025C97.5097 12.3256 97.4655 13.9162 97.4655 15.6835Z" fill="#DDDDDD"/>
<path d="M61.6799 11.3994C61.6799 14.1387 61.7241 16.8339 61.6799 19.5732C61.5915 25.1844 56.9965 29.8236 51.5179 29.9561C45.6416 30.0887 40.7373 25.7588 40.4281 20.2801C40.0746 14.0946 44.051 9.19028 49.9273 8.66009C51.9155 8.48336 53.9038 8.52754 55.892 8.57173C57.1291 8.61591 57.6151 8.17408 57.5709 6.93697C57.4826 5.39058 57.5267 3.84419 57.5709 2.29779C57.6151 0.928134 58.2337 0.000298638 59.6917 0.0444813C61.0613 0.0886639 61.7683 1.0165 61.7683 2.38616C61.6799 5.3464 61.6799 8.395 61.6799 11.3994ZM53.3736 12.7249C52.4899 12.7249 51.6063 12.6807 50.7226 12.7249C47.3205 12.9458 44.6254 15.6409 44.4929 18.9988C44.3603 22.2242 46.8787 25.1844 50.1041 25.5379C53.8154 25.9797 56.6431 23.9473 57.3058 20.3243C57.5267 19.1756 57.5267 17.9826 57.5267 16.8339C57.5709 12.7249 57.5709 12.7249 53.3736 12.7249Z" fill="#DDDDDD"/>
<path d="M108.559 29.956C107.101 29.956 105.599 29.9118 104.141 29.956C102.462 30.0002 100.783 29.8677 100.827 27.7469C100.871 25.8029 102.506 25.6703 104.097 25.6703C106.748 25.7145 109.399 25.7145 112.049 25.6703C112.624 25.6703 113.242 25.6261 113.817 25.5819C115.186 25.4936 115.805 24.6099 115.805 23.3728C115.761 22.0915 114.921 21.3846 113.64 21.3846C110.989 21.3404 108.338 21.3846 105.687 21.3846C101.446 21.2962 98.7063 18.6895 98.7505 14.8014C98.7947 10.9575 101.446 8.57163 105.687 8.52745C108.868 8.48327 112.005 8.52745 115.186 8.52745C116.689 8.52745 117.926 8.96928 117.97 10.6482C117.97 12.3272 116.777 12.769 115.231 12.769C112.049 12.7248 108.913 12.769 105.731 12.769C104.185 12.769 103.036 13.2992 102.992 14.9339C102.992 16.5687 104.141 17.1431 105.687 17.1431C108.25 17.0989 110.812 17.0989 113.419 17.1431C117.484 17.2314 120.135 19.8824 120.047 23.7263C120.002 27.3934 117.263 29.9118 113.242 29.956C111.652 29.956 110.105 29.956 108.559 29.956Z" fill="#DDDDDD"/>
<path d="M30.8883 29.9569C26.0282 29.9569 21.9634 26.9083 20.6379 22.5342C19.2683 17.9392 20.9914 13.0792 24.8353 10.4724C28.6792 7.8656 34.0253 8.08651 37.6041 10.9584C39.4597 12.4606 39.5481 13.6093 37.8692 15.3325C35.0857 18.1602 32.258 20.9437 29.4745 23.7713C29.0768 24.169 28.3699 24.5224 28.635 25.1852C28.9001 25.8037 29.6512 25.6712 30.2256 25.7596C32.0371 25.9363 33.716 25.4945 35.1298 24.2574C36.2786 23.197 37.5157 22.8877 38.5761 24.169C39.6807 25.4945 38.9737 26.6432 37.825 27.5711C35.7926 29.2058 33.4509 30.1336 30.8883 29.9569ZM24.526 19.2647C24.526 19.6182 24.526 20.0158 24.526 20.3693C24.526 20.8995 24.5702 21.518 25.0562 21.7389C25.6306 21.9599 25.8957 21.2971 26.2491 20.9437C28.3699 18.8671 30.4907 16.7021 32.6556 14.6255C33.6276 13.6535 33.4067 13.3001 32.1254 13.035C28.2374 12.1071 24.526 15.1116 24.526 19.2647Z" fill="#DDDDDD"/>
<path d="M10.6041 29.9571C5.9207 29.9129 1.90008 26.9527 0.486234 22.5344C-0.883427 18.072 0.707148 13.2119 4.41849 10.5609C8.26238 7.82162 13.5201 7.8658 17.1873 10.6935C18.1151 11.4004 19.0429 12.1957 18.822 13.6095C18.5127 15.3327 16.7013 15.6419 14.8456 14.3165C12.6365 12.6817 10.2948 12.2399 7.82055 13.5212C5.56724 14.6699 4.28594 16.5698 4.24176 19.1766C4.19757 21.8717 5.47887 23.8599 7.86473 25.0528C10.118 26.2016 12.4155 25.9365 14.5363 24.5227C14.8456 24.3017 15.0665 24.0366 15.3758 23.8157C16.392 23.0646 17.4524 23.0204 18.336 24.0366C19.2197 25.0087 19.0871 26.1132 18.2035 26.9969C16.0827 28.9409 13.5643 29.9571 10.6041 29.9571Z" fill="#DDDDDD"/>
</g>
<defs>
<clipPath id="clip0_821_2002">
<rect width="120" height="30" fill="white"/>
</clipPath>
</defs>
</svg>
