<svg width="146" height="30" viewBox="0 0 146 30" fill="none" xmlns="http://www.w3.org/2000/svg">
<g clip-path="url(#clip0_821_2008)">
<path d="M109.774 3.87399C112.428 1.54146 115.37 -0.0733766 119.065 -0.00160629C122.831 0.070164 125.809 1.36203 127.531 4.91466C128.176 4.91466 128.356 4.3405 128.714 3.98165C131.907 0.787868 135.745 -0.432228 140.158 0.141934C143.709 0.608442 145.933 3.26394 146.041 7.13954C146.148 11.4816 145 15.6443 144.462 19.9147C144.139 22.5702 143.565 25.1898 143.207 27.8453C143.063 28.8501 142.705 29.1013 141.7 28.9577C137.037 28.2759 133.88 24.185 134.49 19.484C134.777 17.4027 135.136 15.3572 135.422 13.3118C135.817 10.5127 135.1 8.75437 133.342 8.18021C131.082 7.46251 128.571 8.71849 127.531 11.1946C126.275 14.1371 126.239 17.3668 125.629 20.4529C125.163 22.8572 124.84 25.2616 124.517 27.7017C124.374 28.7065 124.015 29.1371 122.939 29.1013C120.5 29.0295 118.024 29.0295 115.585 29.1013C114.473 29.1371 114.294 28.7065 114.437 27.7376C115.119 23.5749 115.8 19.3764 116.446 15.2137C116.625 14.1013 116.697 12.9529 116.733 11.8405C116.733 10.1539 116.374 8.57495 114.473 8.03667C112.536 7.49839 110.563 8.25198 109.451 9.9027C108.698 11.051 108.267 12.3788 108.052 13.7424C107.299 18.2639 106.545 22.7855 105.864 27.3429C105.684 28.6706 105.254 29.2807 103.747 29.173C101.487 29.0295 99.1915 29.0654 96.9316 29.173C95.7478 29.2089 95.5326 28.8142 95.7119 27.7376C97.1109 19.1252 98.4382 10.5486 99.7655 1.93619C99.909 1.00318 100.375 0.931408 101.093 0.931408C103.496 0.967293 105.864 1.00318 108.267 0.895523C109.63 0.823753 110.168 1.1826 109.774 2.58213C109.63 2.86921 109.415 3.26394 109.774 3.87399Z" fill="#DDDDDD"/>
<path d="M-0.00277452 15.8234C0.06897 9.04115 6.13138 2.1512 14.8125 0.464595C18.7943 -0.288993 22.7044 -0.181338 26.5786 1.32584C29.0179 2.25885 31.6365 2.22297 34.1117 1.36172C35.2955 0.966988 35.439 1.1823 35.2238 2.33062C34.1835 8.78995 33.179 15.2852 32.1388 21.7445C31.8159 23.7541 31.4572 25.7278 31.2061 27.7373C31.0985 28.6703 30.8115 28.9933 29.8429 28.7062C26.8297 27.7373 23.8881 28.1679 20.9107 28.9933C15.4582 30.5364 10.0415 30.4646 5.05521 27.3067C1.50386 25.01 -0.110391 21.5651 -0.00277452 15.8234ZM18.0051 8.71818C13.9515 8.75407 10.5795 12.1273 10.6154 16.1105C10.6513 19.2684 12.8395 21.2421 16.2473 21.2062C20.3009 21.1703 23.4218 17.9407 23.4218 13.8498C23.3859 10.6919 21.2695 8.71818 18.0051 8.71818Z" fill="#DDDDDD"/>
<path d="M78.3482 0.0353487C82.6529 -0.0364217 86.3477 0.824822 89.3969 3.37267C93.845 7.06884 94.8853 13.5282 92.0156 19.4492C88.8588 25.9444 83.2627 28.9588 76.3394 29.82C73.9718 30.1071 71.5684 29.9995 69.2367 29.3894C61.3089 27.3798 57.6141 20.5617 60.0893 12.6669C62.5286 4.9875 69.8106 0.0353487 78.3482 0.0353487ZM82.8681 13.9229C82.904 10.8009 80.7875 8.71956 77.559 8.71956C73.5055 8.68367 70.0617 12.021 70.0259 16.0401C69.99 19.1263 72.1423 21.1717 75.4067 21.2076C79.5679 21.2435 82.8323 18.0497 82.8681 13.9229Z" fill="#DDDDDD"/>
<path d="M50.2577 0.859572C53.3069 0.859572 56.356 0.895457 59.4052 0.823686C60.4813 0.787801 60.9118 1.00311 60.6966 2.18732C60.302 4.12512 59.9432 6.06292 59.728 8.00072C59.6204 8.93373 59.2975 9.22082 58.4007 9.14904C57.6833 9.07727 56.9658 9.11316 56.2484 9.11316C53.845 9.11316 53.8808 9.11316 53.5221 11.6251C52.697 17.1156 51.8002 22.5701 50.9752 28.0605C50.8317 28.9577 50.4012 29.0653 49.6479 29.0653C47.2445 29.0294 44.8769 28.9577 42.4735 29.1012C40.8233 29.2089 40.7516 28.4912 40.9668 27.2352C41.8636 21.8165 42.6528 16.3978 43.6214 11.0151C43.8725 9.5079 43.6572 9.07727 42.043 9.11316C38.1329 9.22081 38.097 9.11316 38.8504 5.3811C39.1373 3.9457 38.7786 2.0079 39.8189 1.14665C40.9309 0.249524 42.7963 0.895457 44.3388 0.859572C46.3118 0.823686 48.2848 0.859572 50.2577 0.859572Z" fill="#DDDDDD"/>
</g>
<defs>
<clipPath id="clip0_821_2008">
<rect width="146" height="30" fill="white"/>
</clipPath>
</defs>
</svg>
