<svg width="134" height="40" viewBox="0 0 134 40" fill="none" xmlns="http://www.w3.org/2000/svg">
<g clip-path="url(#clip0_821_2015)">
<path d="M78.7017 25.0401C78.7017 23.7201 78.6619 22.3601 78.7017 21.0401C78.9006 15.0001 85.3859 11.4001 90.4785 14.6001C92.07 15.6001 93.1044 15.5601 94.6959 14.5601C99.3509 11.6401 105.637 14.6001 106.314 20.0801C106.711 23.2401 106.513 26.4401 106.473 29.6401C106.433 31.2801 105.359 32.2801 103.767 32.2001C102.176 32.1201 101.261 31.0801 101.261 29.4401C101.261 26.8401 101.34 24.2401 101.221 21.6401C101.102 19.1201 99.2714 17.9601 96.9637 18.7601C95.4916 19.2801 95.2131 20.4801 95.2131 21.8001C95.1733 24.2001 95.2131 26.6001 95.2131 29.0001C95.1733 31.0801 94.1787 32.3201 92.5474 32.2801C90.9162 32.2401 89.9613 31.0801 89.9613 28.9601C89.9215 26.5601 90.0011 24.1601 89.9613 21.7601C89.9215 19.7201 88.8075 18.5601 86.9773 18.5601C85.1471 18.5201 83.9933 19.6801 83.9535 21.7601C83.9137 24.2401 83.9535 26.6801 83.9137 29.1601C83.874 31.1201 82.9191 32.2801 81.3674 32.3201C79.7362 32.3601 78.7415 31.1601 78.7017 29.0801C78.7017 28.4001 78.7017 27.7601 78.7017 27.0801C78.6619 26.4001 78.6619 25.7201 78.7017 25.0401Z" fill="#DDDDDD"/>
<path d="M57.9317 20.9182C57.9317 19.6382 57.892 18.3982 57.9317 17.1182C57.9715 15.3182 58.9662 14.1582 60.4383 14.1182C61.99 14.0782 63.104 15.2782 63.1438 17.1582C63.1836 19.3582 63.1438 21.5582 63.1438 23.7582C63.1836 26.4782 64.3374 27.7182 66.7644 27.7582C69.1515 27.7982 70.3849 26.5582 70.4645 23.8382C70.5441 21.6382 70.4645 19.4382 70.5043 17.2382C70.5441 15.3182 71.5785 14.1182 73.1302 14.1182C74.6819 14.1182 75.7959 15.3182 75.7561 17.2382C75.7163 20.0782 75.9948 22.9582 75.5572 25.7982C74.841 30.3182 71.3398 32.9982 66.4461 32.8382C61.6717 32.6782 58.3296 29.6782 57.9715 25.0782C57.8522 23.6782 57.9715 22.2782 57.9715 20.8782C57.9715 20.9182 57.9317 20.9182 57.9317 20.9182Z" fill="#DDDDDD"/>
<path d="M134.005 25.1586C134.005 26.6386 134.045 28.0786 134.005 29.5586C133.965 31.2386 133.01 32.2386 131.419 32.2386C129.788 32.2786 128.833 31.2786 128.793 29.5986C128.713 27.6786 128.753 25.7586 128.753 23.7986C128.753 19.7986 128.077 18.5986 125.809 18.5186C123.462 18.4786 122.745 19.6786 122.745 23.8386C122.745 25.6386 122.745 27.4386 122.745 29.2386C122.745 30.9586 121.95 32.0386 120.199 32.1986C118.608 32.3186 117.494 31.1186 117.454 29.2386C117.414 26.5186 117.334 23.7586 117.494 21.0386C117.772 15.9986 120.915 13.3586 126.286 13.5186C131.14 13.6786 133.965 16.5586 134.005 21.4786C134.005 22.7586 134.005 23.9586 134.005 25.1586Z" fill="#DDDDDD"/>
<path d="M55.0238 19.6792C55.0238 22.7992 55.0238 25.9192 55.0238 29.0792C55.0238 31.1192 54.1088 32.1992 52.5173 32.2792C50.8463 32.3592 49.772 31.1992 49.772 29.1192C49.7322 22.9192 49.7322 16.7192 49.772 10.5192C49.772 8.43922 50.8065 7.23922 52.4377 7.19922C54.1088 7.19922 55.0238 8.31922 55.0238 10.4792C55.0238 13.5592 55.0238 16.6392 55.0238 19.6792Z" fill="#DDDDDD"/>
<path d="M114.546 22.7577C114.546 24.9577 114.586 27.1577 114.546 29.3577C114.506 31.1577 113.511 32.2777 112 32.2777C110.488 32.2777 109.413 31.1577 109.374 29.3977C109.334 25.0777 109.334 20.7177 109.374 16.3977C109.374 14.6377 110.488 13.5177 112.039 13.6377C113.671 13.7577 114.546 14.7177 114.546 16.3977C114.546 18.5177 114.546 20.6377 114.546 22.7577Z" fill="#DDDDDD"/>
<path d="M114.548 9.83922C114.548 11.3192 113.315 12.5592 111.882 12.4392C110.37 12.3192 109.455 11.4392 109.336 9.91922C109.217 8.47922 110.49 7.23922 111.922 7.19922C113.394 7.19922 114.548 8.39922 114.548 9.83922Z" fill="#DDDDDD"/>
</g>
<ellipse cx="19.8933" cy="20" rx="19.8933" ry="20" fill="#DDDDDD"/>
<path d="M20.0901 4L24.4422 15.8245L36.2037 20.2L24.4422 24.5755L20.0901 36.4L15.738 24.5755L3.97656 20.2L15.738 15.8245L20.0901 4Z" fill="white"/>
<defs>
<clipPath id="clip0_821_2015">
<rect width="84.2679" height="25.64" fill="white" transform="translate(49.7344 7.19922)"/>
</clipPath>
</defs>
</svg>
