<svg width="176" height="30" viewBox="0 0 176 30" fill="none" xmlns="http://www.w3.org/2000/svg">
<path d="M19.3495 24.4087V29.6144H4.36427V24.4087H19.3495ZM6.77813 1.54242V29.6144H0V1.54242H6.77813ZM17.4184 12.6864V17.7185H4.36427V12.6864H17.4184ZM19.4075 1.54242V6.76735H4.36427V1.54242H19.4075Z" fill="#DDDDDD"/>
<path d="M28.696 0V29.6144H22.1689V0H28.696Z" fill="#DDDDDD"/>
<path d="M42.8316 30C41.1322 30 39.6131 29.7365 38.2742 29.2095C36.9353 28.6697 35.8024 27.9306 34.8755 26.9923C33.9615 26.054 33.2598 24.9743 32.7706 23.7532C32.2943 22.5321 32.0561 21.2404 32.0561 19.8779V19.1452C32.0561 17.6157 32.2685 16.2018 32.6934 14.9036C33.1182 13.5925 33.749 12.4486 34.5858 11.4717C35.4227 10.4949 36.4719 9.7365 37.7335 9.19666C38.9952 8.64396 40.4628 8.36761 42.1364 8.36761C43.6169 8.36761 44.9429 8.6054 46.1145 9.08098C47.286 9.55655 48.2773 10.2378 49.0883 11.1247C49.9123 12.0116 50.5367 13.0848 50.9615 14.3445C51.3992 15.6041 51.6181 17.018 51.6181 18.5861V21.2275H34.5472V17.1594H45.2648V16.6581C45.2777 15.964 45.1554 15.3728 44.8979 14.8843C44.6533 14.3959 44.2928 14.0231 43.8165 13.7661C43.3401 13.509 42.7608 13.3805 42.0785 13.3805C41.3704 13.3805 40.7847 13.5347 40.3212 13.8432C39.8706 14.1517 39.5166 14.5758 39.2591 15.1157C39.0145 15.6427 38.8407 16.2532 38.7377 16.9473C38.6347 17.6414 38.5832 18.374 38.5832 19.1452V19.8779C38.5832 20.6491 38.6862 21.3496 38.8922 21.9794C39.111 22.6093 39.42 23.1491 39.8191 23.599C40.2311 24.036 40.7203 24.3766 41.2867 24.6208C41.8661 24.865 42.5226 24.9871 43.2564 24.9871C44.1447 24.9871 45.0202 24.8201 45.8827 24.4859C46.7453 24.1517 47.4855 23.599 48.1035 22.8278L51.0581 26.3368C50.6332 26.9409 50.0281 27.5257 49.2428 28.0913C48.4704 28.6568 47.5435 29.1195 46.4621 29.4794C45.3806 29.8265 44.1705 30 42.8316 30Z" fill="#DDDDDD"/>
<path d="M63.0888 24.9871C63.6938 24.9871 64.2088 24.8779 64.6336 24.6594C65.0713 24.428 65.3996 24.1067 65.6185 23.6954C65.8502 23.2712 65.9596 22.7635 65.9468 22.1722H72.0683C72.0812 23.7404 71.695 25.1157 70.9097 26.2982C70.1372 27.4679 69.0816 28.3805 67.7427 29.036C66.4167 29.6787 64.9169 30 63.2432 30C61.6083 30 60.1792 29.7365 58.9562 29.2095C57.7332 28.6697 56.7097 27.9242 55.8858 26.973C55.0747 26.009 54.4632 24.8843 54.0512 23.599C53.6522 22.3136 53.4526 20.919 53.4526 19.4152V18.9717C53.4526 17.4679 53.6522 16.0733 54.0512 14.7879C54.4632 13.4897 55.0747 12.365 55.8858 11.4139C56.7097 10.4499 57.7268 9.70437 58.9369 9.17738C60.1599 8.63753 61.5825 8.36761 63.2046 8.36761C64.9426 8.36761 66.4746 8.69537 67.8006 9.3509C69.1395 10.0064 70.1887 10.9576 70.9483 12.2044C71.7079 13.4512 72.0812 14.9614 72.0683 16.7352H65.9468C65.9596 16.1054 65.8631 15.5398 65.6571 15.0386C65.4511 14.5373 65.1293 14.1388 64.6916 13.8432C64.2667 13.5347 63.7196 13.3805 63.0501 13.3805C62.3807 13.3805 61.84 13.5283 61.428 13.8239C61.0161 14.1195 60.7006 14.5308 60.4818 15.0578C60.2758 15.572 60.1342 16.1632 60.0569 16.8316C59.9926 17.5 59.9604 18.2134 59.9604 18.9717V19.4152C59.9604 20.1864 59.9926 20.9126 60.0569 21.5938C60.1342 22.2622 60.2822 22.8535 60.5011 23.3676C60.72 23.8689 61.0354 24.2674 61.4473 24.563C61.8593 24.8458 62.4064 24.9871 63.0888 24.9871Z" fill="#DDDDDD"/>
<path d="M85.8563 8.75321V13.2648H73.2656V8.75321H85.8563ZM75.9112 3.56684H82.419V22.8085C82.419 23.3612 82.4834 23.7918 82.6121 24.1003C82.7408 24.3959 82.9597 24.608 83.2687 24.7365C83.5905 24.8522 84.0153 24.91 84.5432 24.91C84.9165 24.91 85.2255 24.9036 85.4701 24.8907C85.7147 24.865 85.9464 24.8329 86.1653 24.7943V29.4409C85.6117 29.6208 85.0324 29.7558 84.4273 29.8458C83.8222 29.9486 83.1785 30 82.4962 30C81.1058 30 79.915 29.7815 78.9237 29.3445C77.9453 28.9075 77.1986 28.2198 76.6836 27.2815C76.1687 26.3432 75.9112 25.1221 75.9112 23.6183V3.56684Z" fill="#DDDDDD"/>
<path d="M95.0097 13.9203V29.6144H88.5019V8.75321H94.5849L95.0097 13.9203ZM101.189 8.59897L101.073 14.6337C100.816 14.608 100.468 14.5758 100.031 14.5373C99.5928 14.4987 99.2259 14.4794 98.9298 14.4794C98.1702 14.4794 97.5137 14.5694 96.9601 14.7494C96.4194 14.9165 95.9688 15.1735 95.6083 15.5206C95.2607 15.8548 95.0033 16.2789 94.8359 16.7931C94.6814 17.3072 94.6106 17.9049 94.6235 18.5861L93.4455 17.8149C93.4455 16.4139 93.5807 15.1414 93.851 13.9974C94.1343 12.8406 94.5334 11.8445 95.0483 11.009C95.5633 10.1607 96.1877 9.51157 96.9215 9.0617C97.6553 8.59897 98.4792 8.36761 99.3933 8.36761C99.7151 8.36761 100.031 8.38689 100.34 8.42545C100.661 8.46401 100.945 8.52185 101.189 8.59897Z" fill="#DDDDDD"/>
<path d="M101.923 19.3959V18.991C101.923 17.4614 102.142 16.054 102.58 14.7686C103.017 13.4704 103.661 12.3458 104.511 11.3946C105.36 10.4434 106.41 9.70437 107.658 9.17738C108.907 8.63753 110.349 8.36761 111.984 8.36761C113.632 8.36761 115.08 8.63753 116.329 9.17738C117.591 9.70437 118.646 10.4434 119.496 11.3946C120.346 12.3458 120.989 13.4704 121.427 14.7686C121.865 16.054 122.084 17.4614 122.084 18.991V19.3959C122.084 20.9126 121.865 22.3201 121.427 23.6183C120.989 24.9036 120.346 26.0283 119.496 26.9923C118.646 27.9434 117.597 28.6825 116.348 29.2095C115.099 29.7365 113.658 30 112.023 30C110.388 30 108.939 29.7365 107.678 29.2095C106.416 28.6825 105.36 27.9434 104.511 26.9923C103.661 26.0283 103.017 24.9036 102.58 23.6183C102.142 22.3201 101.923 20.9126 101.923 19.3959ZM108.431 18.991V19.3959C108.431 20.1799 108.489 20.9126 108.605 21.5938C108.72 22.2751 108.914 22.8727 109.184 23.3869C109.454 23.8882 109.821 24.2802 110.285 24.563C110.748 24.8458 111.327 24.9871 112.023 24.9871C112.705 24.9871 113.271 24.8458 113.722 24.563C114.185 24.2802 114.552 23.8882 114.823 23.3869C115.093 22.8727 115.286 22.2751 115.402 21.5938C115.518 20.9126 115.576 20.1799 115.576 19.3959V18.991C115.576 18.2326 115.518 17.5193 115.402 16.8509C115.286 16.1697 115.093 15.572 114.823 15.0578C114.552 14.5308 114.185 14.1195 113.722 13.8239C113.259 13.5283 112.679 13.3805 111.984 13.3805C111.302 13.3805 110.729 13.5283 110.265 13.8239C109.815 14.1195 109.454 14.5308 109.184 15.0578C108.914 15.572 108.72 16.1697 108.605 16.8509C108.489 17.5193 108.431 18.2326 108.431 18.991Z" fill="#DDDDDD"/>
<path d="M131.372 13.2069V29.6144H124.864V8.75321H130.967L131.372 13.2069ZM130.6 18.4704L129.074 18.509C129.074 16.9152 129.267 15.4949 129.653 14.2481C130.04 12.9884 130.587 11.9216 131.295 11.0476C132.003 10.1735 132.846 9.51157 133.825 9.0617C134.816 8.59897 135.917 8.36761 137.127 8.36761C138.092 8.36761 138.974 8.509 139.772 8.79177C140.583 9.07455 141.279 9.53085 141.858 10.1607C142.45 10.7905 142.901 11.626 143.21 12.6671C143.532 13.6954 143.693 14.9679 143.693 16.4846V29.6144H137.146V16.4653C137.146 15.6298 137.03 14.9936 136.799 14.5566C136.567 14.1067 136.232 13.7982 135.794 13.6311C135.357 13.464 134.822 13.3805 134.192 13.3805C133.522 13.3805 132.956 13.509 132.492 13.7661C132.029 14.0231 131.655 14.383 131.372 14.8458C131.102 15.2956 130.902 15.829 130.774 16.446C130.658 17.063 130.6 17.7378 130.6 18.4704Z" fill="#DDDDDD"/>
<path d="M154.178 8.75321V29.6144H147.651V8.75321H154.178ZM147.265 3.37404C147.265 2.44859 147.6 1.69023 148.269 1.09897C148.939 0.507712 149.808 0.212082 150.876 0.212082C151.945 0.212082 152.814 0.507712 153.483 1.09897C154.153 1.69023 154.487 2.44859 154.487 3.37404C154.487 4.29949 154.153 5.05784 153.483 5.6491C152.814 6.24036 151.945 6.53599 150.876 6.53599C149.808 6.53599 148.939 6.24036 148.269 5.6491C147.6 5.05784 147.265 4.29949 147.265 3.37404Z" fill="#DDDDDD"/>
<path d="M167.02 24.9871C167.625 24.9871 168.14 24.8779 168.565 24.6594C169.003 24.428 169.331 24.1067 169.55 23.6954C169.782 23.2712 169.891 22.7635 169.878 22.1722H176C176.013 23.7404 175.626 25.1157 174.841 26.2982C174.069 27.4679 173.013 28.3805 171.674 29.036C170.348 29.6787 168.848 30 167.175 30C165.54 30 164.111 29.7365 162.888 29.2095C161.665 28.6697 160.641 27.9242 159.817 26.973C159.006 26.009 158.395 24.8843 157.983 23.599C157.583 22.3136 157.384 20.919 157.384 19.4152V18.9717C157.384 17.4679 157.583 16.0733 157.983 14.7879C158.395 13.4897 159.006 12.365 159.817 11.4139C160.641 10.4499 161.658 9.70437 162.868 9.17738C164.091 8.63753 165.514 8.36761 167.136 8.36761C168.874 8.36761 170.406 8.69537 171.732 9.3509C173.071 10.0064 174.12 10.9576 174.88 12.2044C175.639 13.4512 176.013 14.9614 176 16.7352H169.878C169.891 16.1054 169.794 15.5398 169.588 15.0386C169.382 14.5373 169.061 14.1388 168.623 13.8432C168.198 13.5347 167.651 13.3805 166.981 13.3805C166.312 13.3805 165.771 13.5283 165.359 13.8239C164.947 14.1195 164.632 14.5308 164.413 15.0578C164.207 15.572 164.066 16.1632 163.988 16.8316C163.924 17.5 163.892 18.2134 163.892 18.9717V19.4152C163.892 20.1864 163.924 20.9126 163.988 21.5938C164.066 22.2622 164.214 22.8535 164.432 23.3676C164.651 23.8689 164.967 24.2674 165.379 24.563C165.791 24.8458 166.338 24.9871 167.02 24.9871Z" fill="#DDDDDD"/>
</svg>
