<svg width="162" height="30" viewBox="0 0 162 30" fill="none" xmlns="http://www.w3.org/2000/svg">
<path d="M0 29.4941V23.4233H2.50188V6.07082H0V0H17.1629C20.7323 0 23.7345 0.590219 26.1697 1.77066C28.6382 2.9511 30.5063 4.63744 31.7739 6.82968C33.0749 9.02192 33.7254 11.6357 33.7254 14.6712C33.7254 17.8078 33.0916 20.489 31.8239 22.715C30.5897 24.9073 28.7383 26.5936 26.2698 27.774C23.8346 28.9207 20.799 29.4941 17.1629 29.4941H0ZM12.5094 23.4233H16.2622C17.8968 23.4233 19.2311 23.1029 20.2652 22.4621C21.3327 21.8212 22.1166 20.86 22.617 19.5784C23.1507 18.2631 23.4176 16.6273 23.4176 14.6712C23.4176 12.715 23.1507 11.113 22.617 9.86509C22.1166 8.58347 21.3327 7.63912 20.2652 7.03204C19.2311 6.39123 17.8968 6.07082 16.2622 6.07082H12.5094V23.4233Z" fill="#DDDDDD"/>
<path d="M47.906 30C45.5709 30 43.5193 29.5616 41.7513 28.6847C40.0167 27.774 38.649 26.5093 37.6482 24.8904C36.6808 23.2715 36.1972 21.3997 36.1972 19.2749C36.1972 17.1164 36.6808 15.2445 37.6482 13.6594C38.649 12.0742 40.0167 10.8432 41.7513 9.96627C43.5193 9.05565 45.5709 8.60034 47.906 8.60034C50.241 8.60034 52.2759 9.05565 54.0106 9.96627C55.7785 10.8432 57.1462 12.0742 58.1136 13.6594C59.1144 15.2445 59.6148 17.1164 59.6148 19.2749C59.6148 21.3997 59.1144 23.2715 58.1136 24.8904C57.1462 26.5093 55.7785 27.774 54.0106 28.6847C52.2759 29.5616 50.241 30 47.906 30ZM47.906 23.4233C48.8734 23.4233 49.6406 23.0523 50.2077 22.3103C50.8081 21.5683 51.1084 20.5565 51.1084 19.2749C51.1084 17.9933 50.8081 16.9983 50.2077 16.2901C49.6406 15.5481 48.8734 15.1771 47.906 15.1771C46.9386 15.1771 46.1546 15.5481 45.5542 16.2901C44.9871 16.9983 44.7035 17.9933 44.7035 19.2749C44.7035 20.5565 44.9871 21.5683 45.5542 22.3103C46.1546 23.0523 46.9386 23.4233 47.906 23.4233Z" fill="#DDDDDD"/>
<path d="M73.3657 30C70.9973 30 68.9291 29.5616 67.1611 28.6847C65.3931 27.774 64.0254 26.5093 63.058 24.8904C62.0906 23.2378 61.6069 21.3153 61.6069 19.1231C61.6069 16.9309 62.0239 15.059 62.8578 13.5076C63.7252 11.9224 64.8593 10.7083 66.2604 9.86509C67.6948 9.02192 69.2626 8.60034 70.9639 8.60034C71.998 8.60034 72.9321 8.76897 73.766 9.10624C74.6 9.40978 75.2838 9.86509 75.8176 10.4722C76.3513 11.0455 76.6682 11.7201 76.7683 12.4958H76.0678V9.10624H82.0723V17.4536H76.8183C76.0844 15.9359 74.9836 15.1771 73.5158 15.1771C72.5818 15.1771 71.7812 15.5312 71.114 16.2395C70.4469 16.914 70.1133 17.9089 70.1133 19.2243C70.1133 20.4722 70.4469 21.484 71.114 22.2597C71.8146 23.0354 72.9321 23.4233 74.4666 23.4233C75.2338 23.4233 76.0511 23.2546 76.9184 22.9174C77.7857 22.5464 78.6364 22.0236 79.4703 21.3491L82.4726 26.8128C81.3384 27.8246 79.9707 28.6172 78.3695 29.1906C76.8017 29.7302 75.1337 30 73.3657 30Z" fill="#DDDDDD"/>
<path d="M94.7904 23.9292H96.2916V29.4941H83.7822V23.9292H86.0339V5.56492H83.532V0H94.7904V18.9713L100.795 14.6712H98.7935V9.10624H110.152V14.6712H108.15L100.495 19.8314L103.247 16.6948L108.801 23.9292H111.403V29.4941H102.196L94.7904 19.7808V23.9292Z" fill="#DDDDDD"/>
<path d="M124.786 30C122.284 30 120.099 29.5616 118.231 28.6847C116.396 27.8078 114.962 26.5599 113.927 24.941C112.927 23.2884 112.426 21.3491 112.426 19.1231C112.426 17.032 112.893 15.1939 113.827 13.6088C114.761 12.0236 116.062 10.7926 117.73 9.91568C119.398 9.03878 121.333 8.60034 123.535 8.60034C125.703 8.60034 127.571 9.03878 129.139 9.91568C130.74 10.7926 131.974 12.0236 132.842 13.6088C133.709 15.1939 134.143 17.0658 134.143 19.2243V20.7926H116.88V16.9983H125.786C125.786 16.29 125.686 15.683 125.486 15.1771C125.286 14.6712 125.002 14.3002 124.636 14.0641C124.269 13.7943 123.818 13.6594 123.285 13.6594C122.784 13.6594 122.334 13.7943 121.934 14.0641C121.567 14.3339 121.283 14.7218 121.083 15.2277C120.883 15.7336 120.783 16.3744 120.783 17.1501V19.2243C120.783 20.6408 121.2 21.7032 122.034 22.4115C122.868 23.086 124.068 23.4233 125.636 23.4233C126.67 23.4233 127.671 23.3052 128.639 23.0691C129.606 22.7993 130.523 22.3609 131.391 21.7538L134.193 27.1164C133.125 27.9595 131.724 28.6509 129.99 29.1906C128.255 29.7302 126.52 30 124.786 30Z" fill="#DDDDDD"/>
<path d="M146.633 30C143.697 30 141.495 29.3255 140.028 27.9764C138.56 26.5936 137.826 24.4182 137.826 21.4503V14.6712H135.324V9.10624H137.776V2.63069L146.532 1.46712V9.10624H151.836V14.6712H146.583V20.2867C146.583 21.5008 146.816 22.3271 147.283 22.7656C147.783 23.204 148.467 23.4233 149.335 23.4233C149.902 23.4233 150.369 23.3727 150.736 23.2715C151.136 23.1366 151.486 22.9848 151.786 22.8162L152.937 28.5329C152.304 28.9376 151.42 29.2749 150.285 29.5447C149.184 29.8482 147.967 30 146.633 30Z" fill="#DDDDDD"/>
<path d="M154.694 29.4941V22.6644H162V29.4941H154.694Z" fill="#DDDDDD"/>
</svg>
