<svg id="quotes" viewBox="0 0 29 22" xmlns="http://www.w3.org/2000/svg">
    <path fill="currentColor"
        d="M7.125 0.75C5.30163 0.75 3.55295 1.47433 2.26364 2.76364C0.974325 4.05295 0.249998 5.80164 0.249998 7.625C0.249998 10.43 1.71 13.1425 3.88875 13.6663C4.73 13.8688 5.39875 14.9475 5.255 16.1788C5.0625 17.8263 3.5725 19.4912 0.621248 20.8037C-0.0362511 21.0962 0.238749 22.085 0.952497 21.995C8.64375 21.0325 13.975 16.0188 14 8.925C14 4.04625 11.1175 0.75 7.125 0.75ZM22.125 0.75C20.3016 0.75 18.553 1.47433 17.2636 2.76364C15.9743 4.05295 15.25 5.80164 15.25 7.625C15.25 10.43 16.71 13.1425 18.8887 13.6663C19.73 13.8688 20.3987 14.9475 20.255 16.1788C20.0625 17.8263 18.5725 19.4912 15.6212 20.8037C14.9637 21.0962 15.2387 22.085 15.9525 21.995C23.6437 21.0325 28.975 16.0188 29 8.925C29 4.04625 26.1175 0.75 22.125 0.75Z" />
</svg>