<svg width="24" height="24" viewBox="0 0 24 24" fill="none" xmlns="http://www.w3.org/2000/svg">
<g clip-path="url(#clip0_406_2840)">
<mask id="mask0_406_2840" style="mask-type:luminance" maskUnits="userSpaceOnUse" x="0" y="0" width="24" height="24">
<path d="M24 0H0V24H24V0Z" fill="white"/>
</mask>
<g mask="url(#mask0_406_2840)">
<path d="M18.339 1H5.66102C3.08678 1 1 3.08678 1 5.66102V18.339C1 20.9132 3.08678 23 5.66102 23H18.339C20.9132 23 23 20.9132 23 18.339V5.66102C23 3.08678 20.9132 1 18.339 1Z" stroke="white" stroke-width="1.5" stroke-miterlimit="10" stroke-linecap="round" stroke-linejoin="round"/>
<path d="M18.5724 4.26367C17.9288 4.26367 17.4072 4.78533 17.4072 5.42893C17.4072 6.07252 17.9288 6.59418 18.5724 6.59418C19.216 6.59418 19.7377 6.07252 19.7377 5.42893C19.7377 4.78533 19.216 4.26367 18.5724 4.26367Z" stroke="white" stroke-width="1.5"/>
<path d="M12.0001 6.87305C9.16856 6.87305 6.87305 9.16855 6.87305 12.0002C6.87305 14.8318 9.16856 17.1273 12.0001 17.1273C14.8318 17.1273 17.1273 14.8318 17.1273 12.0002C17.1273 9.16855 14.8318 6.87305 12.0001 6.87305Z" stroke="white" stroke-width="1.5" stroke-miterlimit="10" stroke-linecap="round" stroke-linejoin="round"/>
</g>
</g>
<defs>
<clipPath id="clip0_406_2840">
<rect width="24" height="24" fill="white"/>
</clipPath>
</defs>
</svg>
