<svg width="51" height="50" viewBox="0 0 51 50" fill="none" xmlns="http://www.w3.org/2000/svg">
<g clip-path="url(#clip0_532_2820)">
<path d="M23.188 32.2666L24.1815 33.3535C26.3774 35.7558 29.0496 37.6744 32.0279 38.987C35.0061 40.2997 38.2251 40.9776 41.4798 40.9775H49.3208C49.3208 43.3186 47.4197 45.2148 45.0786 45.209L34.9645 45.1834C30.9693 45.1733 27.1197 43.6825 24.1598 40.999L5.01879 23.6462C1.95884 20.8722 3.16177 15.8134 7.14281 14.7136L17.2584 25.7797" stroke="#BFA893" stroke-width="1.5" stroke-miterlimit="10" stroke-linecap="round" stroke-linejoin="round"/>
<path d="M6.8042 14.7144C7.56435 9.10976 12.3685 4.79005 18.1816 4.79005L18.6888 6.63995C19.6641 10.1977 23.3561 12.2747 26.9031 11.2613C28.6994 10.748 30.5907 11.6898 31.2634 13.4327L37.081 28.5036C37.4662 29.5015 38.0725 30.3993 38.8544 31.1294C39.6362 31.8595 40.5733 32.4031 41.5952 32.7193L43.7133 33.3745C47.0472 34.4059 49.3206 37.4887 49.3206 40.9785" stroke="#BFA893" stroke-width="1.5" stroke-miterlimit="10" stroke-linecap="round" stroke-linejoin="round"/>
<path d="M12.6819 20.7734C14.2891 19.3035 15.2971 17.1894 15.2971 14.8399C15.2971 11.6284 13.4141 8.85697 10.6919 7.56908" stroke="#BFA893" stroke-width="1.5" stroke-miterlimit="10" stroke-linecap="round" stroke-linejoin="round"/>
<path d="M32.1723 15.7859L29.999 16.7734" stroke="#BFA893" stroke-width="1.5" stroke-miterlimit="10" stroke-linecap="round" stroke-linejoin="round"/>
<path d="M33.9646 20.6906L31.7837 21.6816" stroke="#BFA893" stroke-width="1.5" stroke-miterlimit="10" stroke-linecap="round" stroke-linejoin="round"/>
<path d="M35.7243 25.7242L34.189 26.4219" stroke="#BFA893" stroke-width="1.5" stroke-miterlimit="10" stroke-linecap="round" stroke-linejoin="round"/>
<path d="M38.4873 30.7601C35.2748 33.1859 31.714 35.1749 27.8931 36.6387" stroke="#BFA893" stroke-width="1.5" stroke-miterlimit="10" stroke-linecap="round" stroke-linejoin="round"/>
<path d="M33.1905 33.6992L24.3002 18.3531C22.7604 15.6952 24.0096 12.2919 26.9033 11.2612" stroke="#BFA893" stroke-width="1.5" stroke-miterlimit="10" stroke-linecap="round" stroke-linejoin="round"/>
<path d="M34.9645 45.1836H15.1089" stroke="#BFA893" stroke-width="1.5" stroke-miterlimit="10" stroke-linecap="round" stroke-linejoin="round"/>
<path d="M10.127 45.1836H3.28564" stroke="#BFA893" stroke-width="1.5" stroke-miterlimit="10" stroke-linecap="round" stroke-linejoin="round"/>
<path d="M3.954 39.457H1.27393" stroke="#BFA893" stroke-width="1.5" stroke-miterlimit="10" stroke-linecap="round" stroke-linejoin="round"/>
<path d="M14.8147 39.457H8.57617" stroke="#BFA893" stroke-width="1.5" stroke-miterlimit="10" stroke-linecap="round" stroke-linejoin="round"/>
<path d="M15.8621 33.7305H3.9541" stroke="#BFA893" stroke-width="1.5" stroke-miterlimit="10" stroke-linecap="round" stroke-linejoin="round"/>
</g>
<defs>
<clipPath id="clip0_532_2820">
<rect width="50" height="50" fill="white" transform="translate(0.297363 -0.00195312)"/>
</clipPath>
</defs>
</svg>
