<svg width="36" height="12" viewBox="0 0 36 12" fill="none" xmlns="http://www.w3.org/2000/svg">
<path d="M30.8757 11.6773L35.5962 6.9712C35.8548 6.71281 36 6.36272 36 5.99774C36 5.63275 35.8548 5.28267 35.5962 5.02427L30.8758 0.318303C30.6639 0.112458 30.3792 -0.00188671 30.0833 2.35555e-05C29.7874 0.00193382 29.5042 0.119945 29.2949 0.328509C29.0857 0.537074 28.9673 0.819405 28.9653 1.11438C28.9633 1.40935 29.078 1.69323 29.2844 1.90455L32.2648 4.87577H1.1252C0.82678 4.87577 0.540581 4.99395 0.329564 5.20432C0.118548 5.41469 0 5.70001 0 5.99751C0 6.29502 0.118548 6.58034 0.329564 6.79071C0.540581 7.00107 0.82678 7.11926 1.1252 7.11926H32.2646L29.2844 10.091C29.0761 10.3019 28.9598 10.5864 28.9609 10.8825C28.9621 11.1785 29.0805 11.4621 29.2905 11.6714C29.5005 11.8807 29.7849 11.9988 30.0819 12C30.3788 12.0011 30.6642 11.885 30.8757 11.6773Z" fill="#232323"/>
</svg>
