<svg width="22" height="22" viewBox="0 0 22 22" fill="none" xmlns="http://www.w3.org/2000/svg">
<path fill-rule="evenodd" clip-rule="evenodd" d="M9.63823 17.7225C9.63823 17.3659 9.78171 17.0239 10.0371 16.7718C10.2925 16.5197 10.6389 16.378 11.0001 16.378H19.1716C19.5328 16.378 19.8792 16.5197 20.1346 16.7718C20.39 17.0239 20.5335 17.3659 20.5335 17.7225C20.5335 18.0791 20.39 18.421 20.1346 18.6731C19.8792 18.9253 19.5328 19.0669 19.1716 19.0669H11.0001C10.6389 19.0669 10.2925 18.9253 10.0371 18.6731C9.78171 18.421 9.63823 18.0791 9.63823 17.7225ZM1.4668 4.27804C1.4668 3.92147 1.61028 3.5795 1.86569 3.32737C2.1211 3.07524 2.4675 2.93359 2.8287 2.93359H19.1716C19.5328 2.93359 19.8792 3.07524 20.1346 3.32737C20.39 3.5795 20.5335 3.92147 20.5335 4.27804C20.5335 4.63461 20.39 4.97657 20.1346 5.2287C19.8792 5.48084 19.5328 5.62248 19.1716 5.62248H2.8287C2.4675 5.62248 2.1211 5.48084 1.86569 5.2287C1.61028 4.97657 1.4668 4.63461 1.4668 4.27804ZM1.4668 11.0003C1.4668 10.6437 1.61028 10.3017 1.86569 10.0496C2.1211 9.79746 2.4675 9.65582 2.8287 9.65582H19.1716C19.5328 9.65582 19.8792 9.79746 20.1346 10.0496C20.39 10.3017 20.5335 10.6437 20.5335 11.0003C20.5335 11.3568 20.39 11.6988 20.1346 11.9509C19.8792 12.2031 19.5328 12.3447 19.1716 12.3447H2.8287C2.4675 12.3447 2.1211 12.2031 1.86569 11.9509C1.61028 11.6988 1.4668 11.3568 1.4668 11.0003Z" fill="#2D82FF"/>
</svg>
