<svg width="194" height="39" viewBox="0 0 194 39" fill="none" xmlns="http://www.w3.org/2000/svg">
<path d="M88.281 36.0281H72.8746V35.0371C73.8097 35.0371 74.5255 34.7929 75.0223 34.3046C75.5336 33.8163 75.8843 33.1054 76.0742 32.1719C76.2642 31.2383 76.3591 30.0966 76.3591 28.7465V13.5156L64.8975 15.9715V28.7465C64.8975 30.0966 64.9924 31.2383 65.1824 32.1719C65.3723 33.1054 65.7156 33.8163 66.2124 34.3046C66.7237 34.7929 67.4469 35.0371 68.382 35.0371V36.0281H52.9756V35.0371C53.9106 35.0371 54.6265 34.7929 55.1233 34.3046C55.6346 33.8163 55.9853 33.1054 56.1752 32.1719C56.3651 31.2383 56.4601 30.0966 56.4601 28.7465V12.1584C56.4601 10.8228 56.3651 9.68817 56.1752 8.75464C55.9853 7.80674 55.6346 7.08864 55.1233 6.60033C54.6265 6.11203 53.9106 5.86787 52.9756 5.86787V4.89844H68.382V5.86787C67.4469 5.86787 66.7237 6.11203 66.2124 6.60033C65.7156 7.08864 65.3723 7.80674 65.1824 8.75464C64.9924 9.68817 64.8975 10.8228 64.8975 12.1584V14.722L76.3591 12.2661C76.3591 10.9018 76.2642 9.74561 76.0742 8.79772C75.8989 7.83547 75.5556 7.11019 75.0442 6.62188C74.5475 6.11921 73.8243 5.86787 72.8746 5.86787V4.89844H88.281V5.86787C87.3459 5.86787 86.6227 6.11203 86.1114 6.60033C85.6146 7.08864 85.2713 7.80674 85.0814 8.75464C84.8914 9.68817 84.7965 10.8228 84.7965 12.1584V28.7465C84.7965 30.0966 84.8914 31.2383 85.0814 32.1719C85.2713 33.1054 85.6146 33.8163 86.1114 34.3046C86.6227 34.7929 87.3459 35.0371 88.281 35.0371V36.0281Z" fill="white"/>
<path d="M125.712 36.0281H111.774V35.0371C112.359 35.0371 112.768 34.9366 113.001 34.7355C113.25 34.5201 113.374 34.2256 113.374 33.8522C113.359 33.3208 113.191 32.6817 112.87 31.9349C112.563 31.1737 112.198 30.3479 111.774 29.4575C111.686 29.2995 111.606 29.1343 111.533 28.962H98.2963C97.8726 29.9817 97.5438 30.8434 97.3101 31.5471C97.0763 32.2365 96.9594 32.8397 96.9594 33.3567C96.9594 34.477 97.6826 35.0371 99.129 35.0371H99.2386V36.0281H90.9547V35.0371C92.3572 35.0371 93.4822 34.6062 94.3296 33.7445C95.177 32.8828 95.9659 31.5184 96.6964 29.6513L103.512 13.3002C103.015 12.855 102.504 12.5462 101.978 12.3739C101.452 12.1872 100.89 12.0938 100.291 12.0938L102.394 4.89844C104.63 5.01333 106.463 5.62372 107.895 6.72959C109.342 7.83547 110.488 9.29321 111.336 11.1028L119.948 28.8973C120.504 30.1038 121.044 31.1665 121.57 32.0857C122.111 33.0049 122.702 33.7302 123.345 34.2616C123.988 34.7786 124.777 35.0371 125.712 35.0371V36.0281ZM110.941 27.734L105.134 15.5407C104.9 15.0667 104.659 14.6502 104.411 14.2912L98.8003 27.734H110.941Z" fill="white"/>
<path d="M130.183 37.2345H129.723L127.465 29.479C127.845 29.5795 128.225 29.6298 128.605 29.6298C129.774 29.6298 130.943 29.2133 132.111 28.3803C133.295 27.5473 134.456 26.4414 135.596 25.0627C136.736 23.6696 137.839 22.1257 138.905 20.4309C139.986 18.7362 141.009 17.0128 141.973 15.2606C142.938 13.4941 143.829 11.8209 144.647 10.2411C145.465 8.66128 146.196 7.28971 146.838 6.12639H135.355C133.908 6.12639 132.652 7.04556 131.585 8.88389C130.709 10.435 130.103 12.18 129.766 14.1188L128.78 14.0111L129.723 4.89844H158.103V6.12639C156.89 6.12639 156.021 6.3849 155.495 6.90194C154.984 7.40461 154.399 8.31659 153.742 9.6379C152.967 11.0885 152.178 12.5893 151.375 14.1404C150.031 16.783 148.621 19.4256 147.145 22.0682C145.67 24.6965 144.099 27.1236 142.433 29.3497C140.768 31.5759 138.986 33.3927 137.086 34.8001H148.614C151.17 34.8001 153.208 33.6512 154.728 31.3532C155.897 29.6011 156.766 27.4109 157.336 24.7826C157.511 23.9784 157.701 22.9946 157.906 21.8312L158.892 21.939L157.358 36.0281H135.092C133.558 36.8323 131.921 37.2345 130.183 37.2345Z" fill="white"/>
<path d="M185.672 36.0281H170.244V35.0371C171.179 35.0371 171.895 34.7929 172.392 34.3046C172.903 33.8163 173.254 33.1054 173.444 32.1719C173.633 31.224 173.728 30.0822 173.728 28.7465V22.1113L167.877 12.1584C167.19 10.9807 166.496 9.91796 165.795 8.97006C165.094 8.02217 164.349 7.26817 163.56 6.70805C162.771 6.14793 161.902 5.86787 160.952 5.86787V4.89844H176.38V5.86787C175.138 5.86787 174.517 6.40645 174.517 7.4836C174.517 8.56075 175.116 10.119 176.314 12.1584L181.355 20.711L186.417 11.2536C187.382 9.57327 187.864 8.28069 187.864 7.37588C187.864 6.37054 187.148 5.86787 185.716 5.86787V4.89844H194V5.86787C192.583 5.86787 191.407 6.32028 190.472 7.22508C189.551 8.11553 188.638 9.45837 187.732 11.2536L182.166 21.7235V28.7465C182.166 30.0822 182.261 31.224 182.451 32.1719C182.641 33.1054 182.991 33.8163 183.503 34.3046C184.014 34.7929 184.737 35.0371 185.672 35.0371V36.0281Z" fill="white"/>
<path d="M0 0V0C5.44318 0 9.85574 4.41257 9.85574 9.85574V19.4996V19.4996C4.41256 19.4996 0 15.0871 0 9.64388V0Z" fill="#AFCB8B"/>
<path d="M39.4229 0V0C33.9797 0 29.5671 4.41257 29.5671 9.85574V19.4996V19.4996C35.0103 19.4996 39.4229 15.0871 39.4229 9.64388V0Z" fill="#AFCB8B"/>
<path d="M19.7112 9.74981C19.7112 4.3972 15.2987 0 9.85547 0H29.5669C24.1237 0 19.7112 4.3972 19.7112 9.74981Z" fill="#E5EFD8"/>
<path fill-rule="evenodd" clip-rule="evenodd" d="M9.85547 38.9992C15.2987 38.9992 19.7112 34.602 19.7112 29.2494C19.7112 34.602 24.1237 38.9992 29.5669 38.9992H9.85547Z" fill="#E5EFD8"/>
<path d="M19.7112 9.74981C19.7112 15.1024 15.2987 19.4996 9.85547 19.4996C15.2987 19.4996 19.7112 23.8968 19.7112 29.2494C19.7112 23.8968 24.1237 19.4996 29.5669 19.4996C24.1237 19.4996 19.7112 15.1024 19.7112 9.74981Z" fill="#AFCB8B"/>
<path d="M0 39V39C5.44318 39 9.85574 34.5874 9.85574 29.1443V19.5004V19.5004C4.41256 19.5004 0 23.9129 0 29.3561V39Z" fill="#AFCB8B"/>
<path d="M39.4229 39V39C33.9797 39 29.5671 34.5874 29.5671 29.1443V19.5004V19.5004C35.0103 19.5004 39.4229 23.9129 39.4229 29.3561V39Z" fill="#AFCB8B"/>
</svg>
