<svg width="195" height="40" viewBox="0 0 195 40" fill="none" xmlns="http://www.w3.org/2000/svg">
<path d="M88.3217 36.7688H72.9082V35.7575C73.8437 35.7575 74.5599 35.5083 75.0569 35.01C75.5685 34.5117 75.9193 33.7861 76.1093 32.8334C76.2993 31.8807 76.3943 30.7155 76.3943 29.3378V13.7941L64.9274 16.3005V29.3378C64.9274 30.7155 65.0224 31.8807 65.2124 32.8334C65.4024 33.7861 65.7459 34.5117 66.2429 35.01C66.7545 35.5083 67.478 35.7575 68.4135 35.7575V36.7688H53V35.7575C53.9355 35.7575 54.6517 35.5083 55.1487 35.01C55.6603 34.5117 56.0111 33.7861 56.2011 32.8334C56.3911 31.8807 56.4861 30.7155 56.4861 29.3378V12.4091C56.4861 11.046 56.3911 9.88807 56.2011 8.93538C56.0111 7.96802 55.6603 7.23518 55.1487 6.73684C54.6517 6.23851 53.9355 5.98934 53 5.98934V5H68.4135V5.98934C67.478 5.98934 66.7545 6.23851 66.2429 6.73684C65.7459 7.23518 65.4024 7.96802 65.2124 8.93538C65.0224 9.88807 64.9274 11.046 64.9274 12.4091V15.0253L76.3943 12.519C76.3943 11.1266 76.2993 9.9467 76.1093 8.97935C75.9339 7.99733 75.5904 7.25716 75.0788 6.75883C74.5818 6.24584 73.8583 5.98934 72.9082 5.98934V5H88.3217V5.98934C87.3862 5.98934 86.6627 6.23851 86.1511 6.73684C85.6541 7.23518 85.3106 7.96802 85.1206 8.93538C84.9306 9.88807 84.8356 11.046 84.8356 12.4091V29.3378C84.8356 30.7155 84.9306 31.8807 85.1206 32.8334C85.3106 33.7861 85.6541 34.5117 86.1511 35.01C86.6627 35.5083 87.3862 35.7575 88.3217 35.7575V36.7688Z" fill="#232323"/>
<path d="M125.77 36.7688H111.826V35.7575C112.41 35.7575 112.82 35.6549 113.053 35.4497C113.302 35.2298 113.426 34.9294 113.426 34.5483C113.412 34.006 113.243 33.3538 112.922 32.5916C112.615 31.8148 112.25 30.972 111.826 30.0633C111.738 29.9021 111.658 29.7335 111.584 29.5576H98.3416C97.9177 30.5983 97.5888 31.4777 97.3549 32.1959C97.121 32.8994 97.0041 33.515 97.0041 34.0426C97.0041 35.1859 97.7276 35.7575 99.1747 35.7575H99.2843V36.7688H90.9966V35.7575C92.3998 35.7575 93.5253 35.3178 94.3731 34.4384C95.2209 33.559 96.0102 32.1666 96.741 30.2612L103.56 13.5743C103.063 13.1199 102.551 12.8048 102.025 12.6289C101.499 12.4384 100.936 12.3431 100.337 12.3431L102.442 5C104.678 5.11726 106.512 5.74017 107.945 6.86875C109.392 7.99733 110.539 9.48501 111.387 11.3318L120.004 29.4917C120.559 30.7228 121.1 31.8075 121.626 32.7455C122.167 33.6835 122.759 34.4237 123.402 34.966C124.045 35.4937 124.835 35.7575 125.77 35.7575V36.7688ZM110.992 28.3045L105.182 15.8608C104.948 15.3771 104.707 14.952 104.459 14.5856L98.8458 28.3045H110.992Z" fill="#232323"/>
<path d="M130.243 38H129.782L127.524 30.0853C127.904 30.1879 128.284 30.2392 128.664 30.2392C129.834 30.2392 131.003 29.8141 132.172 28.964C133.356 28.1139 134.518 26.9853 135.658 25.5783C136.799 24.1566 137.902 22.5809 138.969 20.8514C140.051 19.1219 141.074 17.3631 142.039 15.5749C143.003 13.7722 143.895 12.0646 144.714 10.4524C145.532 8.84011 146.263 7.44037 146.906 6.25316H135.417C133.97 6.25316 132.713 7.19121 131.646 9.06729C130.769 10.6502 130.162 12.431 129.826 14.4097L128.84 14.2998L129.782 5H158.176V6.25316C156.963 6.25316 156.093 6.51699 155.567 7.04464C155.055 7.55763 154.47 8.48834 153.813 9.83678C153.038 11.3171 152.249 12.8488 151.445 14.4317C150.1 17.1286 148.689 19.8254 147.213 22.5223C145.737 25.2045 144.165 27.6815 142.499 29.9534C140.833 32.2252 139.05 34.0793 137.149 35.5157H148.682C151.24 35.5157 153.279 34.3431 154.799 31.998C155.969 30.2099 156.838 27.9747 157.408 25.2925C157.584 24.4717 157.774 23.4677 157.978 22.2805L158.965 22.3904L157.43 36.7688H135.154C133.619 37.5896 131.982 38 130.243 38Z" fill="#232323"/>
<path d="M185.758 36.7688H170.322V35.7575C171.258 35.7575 171.974 35.5083 172.471 35.01C172.983 34.5117 173.333 33.7861 173.523 32.8334C173.713 31.8661 173.808 30.7009 173.808 29.3378V22.5663L167.954 12.4091C167.267 11.2072 166.573 10.1226 165.872 9.15523C165.17 8.18787 164.424 7.41839 163.635 6.84677C162.846 6.27515 161.976 5.98934 161.026 5.98934V5H176.461V5.98934C175.219 5.98934 174.598 6.53897 174.598 7.63824C174.598 8.73751 175.197 10.3278 176.396 12.4091L181.439 21.1372L186.503 11.4857C187.468 9.77082 187.95 8.4517 187.95 7.52831C187.95 6.50233 187.234 5.98934 185.802 5.98934V5H194.089V5.98934C192.672 5.98934 191.495 6.45103 190.559 7.37442C189.639 8.28314 188.725 9.65356 187.819 11.4857L182.25 22.1706V29.3378C182.25 30.7009 182.345 31.8661 182.535 32.8334C182.725 33.7861 183.076 34.5117 183.587 35.01C184.099 35.5083 184.822 35.7575 185.758 35.7575V36.7688Z" fill="#232323"/>
<path d="M0 0C5.44568 0 9.86028 4.4146 9.86028 9.86028V19.9C4.4146 19.9 0 15.4854 0 10.0397V0Z" fill="#BFA893"/>
<path d="M39.4414 0C33.9957 0 29.5811 4.4146 29.5811 9.86028V19.9C35.0268 19.9 39.4414 15.4854 39.4414 10.0397V0Z" fill="#BFA893"/>
<path d="M19.7206 9.95C19.7206 4.48748 15.3061 0 9.86035 0H29.5809C24.1352 0 19.7206 4.48748 19.7206 9.95Z" fill="#F2E8DF"/>
<path fill-rule="evenodd" clip-rule="evenodd" d="M9.86035 39.8C15.3061 39.8 19.7206 35.3125 19.7206 29.85C19.7206 35.3125 24.1352 39.8 29.5809 39.8H9.86035Z" fill="#F2E8DF"/>
<path d="M19.7206 9.95C19.7206 15.4125 15.3061 19.9 9.86035 19.9C15.3061 19.9 19.7206 24.3875 19.7206 29.85C19.7206 24.3875 24.1352 19.9 29.5809 19.9C24.1352 19.9 19.7206 15.4125 19.7206 9.95Z" fill="#BFA893"/>
<path d="M0 39.8008C5.44568 39.8008 9.86028 35.3862 9.86028 29.9405V19.9008C4.4146 19.9008 0 24.3154 0 29.7611V39.8008Z" fill="#BFA893"/>
<path d="M39.4414 39.8008C33.9957 39.8008 29.5811 35.3862 29.5811 29.9405V19.9008C35.0268 19.9008 39.4414 24.3154 39.4414 29.7611V39.8008Z" fill="#BFA893"/>
</svg>
