<svg version="1.2" xmlns="http://www.w3.org/2000/svg" viewBox="0 0 196 40" width="196" height="40">
	<style>
		.s0 { fill: #ffffff } 
		.s1 { fill: #6a736d } 
		.s2 { fill: #f2ede4 } 
	</style>
	<path class="s0" d="m90.23 35.27h-15.41v-1.01q1.4 0 2.15-0.75 0.76-0.75 1.05-2.18 0.28-1.43 0.28-3.49v-15.55l-11.46 2.51v13.04q0 2.06 0.28 3.49 0.29 1.43 1.03 2.18 0.77 0.75 2.17 0.75v1.01h-15.41v-1.01q1.4 0 2.15-0.75 0.77-0.75 1.05-2.18 0.29-1.43 0.29-3.49v-16.93q0-2.05-0.29-3.47-0.28-1.46-1.05-2.2-0.75-0.75-2.15-0.75v-0.99h15.41v0.99q-1.4 0-2.17 0.75-0.74 0.74-1.03 2.2-0.28 1.42-0.28 3.47v2.62l11.46-2.51q0-2.09-0.28-3.54-0.26-1.47-1.03-2.22-0.75-0.77-2.17-0.77v-0.99h15.41v0.99q-1.4 0-2.17 0.75-0.74 0.74-1.03 2.2-0.28 1.42-0.28 3.47v16.93q0 2.06 0.28 3.49 0.29 1.43 1.03 2.18 0.77 0.75 2.17 0.75z"/>
	<path class="s0" d="m127.68 35.27h-13.94v-1.01q0.87 0 1.22-0.31 0.38-0.33 0.38-0.9-0.03-0.82-0.51-1.96-0.46-1.16-1.09-2.53-0.14-0.24-0.25-0.5h-13.24q-0.63 1.56-0.99 2.64-0.35 1.05-0.35 1.84 0 1.72 2.17 1.72h0.11v1.01h-8.28v-1.01q2.1 0 3.37-1.32 1.27-1.32 2.37-4.18l6.82-16.69q-0.75-0.68-1.54-0.94-0.78-0.29-1.68-0.29l2.1-7.34q3.36 0.18 5.5 1.87 2.18 1.69 3.45 4.46l8.61 18.16q0.84 1.85 1.63 3.26 0.81 1.4 1.77 2.22 0.97 0.79 2.37 0.79zm-14.78-8.47l-5.81-12.44q-0.35-0.73-0.72-1.28l-5.61 13.72z"/>
	<path class="s0" d="m132.15 36.5h-0.46l-2.26-7.91q0.57 0.15 1.14 0.15 1.76 0 3.51-1.28 1.78-1.27 3.49-3.38 1.71-2.13 3.31-4.73 1.62-2.59 3.07-5.28 1.45-2.7 2.67-5.12 1.23-2.42 2.2-4.2h-11.49q-2.17 0-3.77 2.82-1.32 2.37-1.82 5.34l-0.99-0.11 0.94-9.3h28.4v1.25q-1.82 0-2.61 0.79-0.77 0.77-1.76 2.8-1.16 2.22-2.37 4.59-2.01 4.05-4.23 8.09-2.21 4.03-4.71 7.43-2.5 3.41-5.35 5.57h11.53q3.84 0 6.12-3.52 1.75-2.68 2.61-6.71 0.26-1.23 0.57-3.01l0.98 0.11-1.53 14.38h-22.28q-2.3 1.23-4.91 1.23z"/>
	<path class="s0" d="m187.67 35.27h-15.44v-1.01q1.41 0 2.15-0.75 0.77-0.75 1.05-2.18 0.29-1.45 0.29-3.49v-6.77l-5.85-10.16q-1.04-1.8-2.09-3.25-1.05-1.46-2.24-2.31-1.18-0.86-2.6-0.86v-0.99h15.43v0.99q-1.86 0-1.86 1.65 0 1.65 1.8 4.77l5.04 8.73 5.06-9.65q1.45-2.58 1.45-3.96 0-1.54-2.15-1.54v-0.99h8.29v0.99q-2.13 0-3.53 1.38-1.38 1.37-2.74 4.12l-5.57 10.68v7.17q0 2.04 0.29 3.49 0.28 1.43 1.05 2.18 0.76 0.75 2.17 0.75z"/>
	<path class="s1" d="m0.19 0.1c5.45 0 9.86 4.41 9.86 9.86v10.04c-5.44 0-9.86-4.41-9.86-9.86z"/>
	<path class="s1" d="m39.63 0.1c-5.44 0-9.86 4.41-9.86 9.86v10.04c5.45 0 9.86-4.41 9.86-9.86z"/>
	<path class="s2" d="m19.91 10.05c0-5.46-4.41-9.95-9.86-9.95h19.72c-5.44 0-9.86 4.49-9.86 9.95z"/>
	<path fill-rule="evenodd" class="s2" d="m10.05 39.9c5.45 0 9.86-4.49 9.86-9.95 0 5.46 4.42 9.95 9.86 9.95z"/>
	<path class="s1" d="m19.91 10.05c0 5.46-4.41 9.95-9.86 9.95 5.45 0 9.86 4.49 9.86 9.95 0-5.46 4.42-9.95 9.86-9.95-5.44 0-9.86-4.49-9.86-9.95z"/>
	<path class="s1" d="m0.19 39.9c5.45 0 9.86-4.42 9.86-9.86v-10.04c-5.44 0-9.86 4.41-9.86 9.86z"/>
	<path class="s1" d="m39.63 39.9c-5.44 0-9.86-4.42-9.86-9.86v-10.04c5.45 0 9.86 4.41 9.86 9.86z"/>
</svg>